<?xml version="1.0" standalone="yes"?>

<svg version="1.1" viewBox="0.0 0.0 571.0 250.0" fill="none" stroke="none" stroke-linecap="square" stroke-miterlimit="10" xmlns="http://www.w3.org/2000/svg" xmlns:xlink="http://www.w3.org/1999/xlink"><clipPath id="p.0"><path d="m0 0l571.0 0l0 250.0l-571.0 0l0 -250.0z" clip-rule="nonzero"></path></clipPath><g clip-path="url(#p.0)"><path fill="#000000" fill-opacity="0.0" d="m0 0l571.9869 0l0 250.87138l-571.9869 0z" fill-rule="nonzero"></path><path fill="#f3f3f3" d="m5.4593177 8.207349l59.62205 0l0 81.385826l-59.62205 0z" fill-rule="nonzero"></path><path stroke="#000000" stroke-width="1.0" stroke-linejoin="round" stroke-linecap="butt" d="m5.4593177 8.207349l59.62205 0l0 81.385826l-59.62205 0z" fill-rule="nonzero"></path><path fill="#000000" d="m16.787443 46.86026l0 -5.6875l-2.109376 0l0 -0.75l5.093751 0l0 0.75l-2.125 0l0 5.6875l-0.859375 0zm3.947998 0l0 -4.671875l0.71875 0l0 0.71875q0.265625 -0.5 0.5 -0.65625q0.234375 -0.15625 0.515625 -0.15625q0.390625 0 0.8125 0.25l-0.28125 0.734375q-0.28125 -0.171875 -0.578125 -0.171875q-0.25 0 -0.46875 0.15625q-0.203125 0.15625 -0.296875 0.4375q-0.125 0.421875 -0.125 0.921875l0 2.4375l-0.796875 0zm3.1219635 -5.53125l0 -0.90625l0.796875 0l0 0.90625l-0.796875 0zm0 5.53125l0 -4.671875l0.796875 0l0 4.671875l-0.796875 0zm2.0724182 1.78125l0 -6.453125l0.71875 0l0 0.609375q0.25 -0.359375 0.5625 -0.53125q0.328125 -0.171875 0.796875 -0.171875q0.59375 0 1.046875 0.3125q0.453125 0.296875 0.6875 0.859375q0.234375 0.5625 0.234375 1.21875q0 0.71875 -0.265625 1.296875q-0.25 0.578125 -0.734375 0.890625q-0.484375 0.296875 -1.03125 0.296875q-0.390625 0 -0.703125 -0.171875q-0.3125 -0.171875 -0.515625 -0.421875l0 2.265625l-0.796875 0zm0.71875 -4.09375q0 0.90625 0.359375 1.34375q0.375 0.421875 0.890625 0.421875q0.515625 0 0.890625 -0.4375q0.390625 -0.453125 0.390625 -1.390625q0 -0.890625 -0.375 -1.328125q-0.359375 -0.453125 -0.875 -0.453125q-0.5 0 -0.890625 0.484375q-0.390625 0.46875 -0.390625 1.359375zm4.453491 2.3125l0 -6.4375l0.78125 0l0 6.4375l-0.78125 0zm5.2755413 -1.5l0.828125 0.09375q-0.203125 0.71875 -0.734375 1.125q-0.515625 0.390625 -1.328125 0.390625q-1.015625 0 -1.625 -0.625q-0.59375 -0.640625 -0.59375 -1.78125q0 -1.171875 0.609375 -1.8125q0.609375 -0.65625 1.578125 -0.65625q0.9375 0 1.515625 0.640625q0.59375 0.625 0.59375 1.78125q0 0.078125 0 0.21875l-3.484375 0q0.046875 0.765625 0.4375 1.171875q0.390625 0.40625 0.984375 0.40625q0.4375 0 0.734375 -0.21875q0.3125 -0.234375 0.484375 -0.734375zm-2.59375 -1.28125l2.609375 0q-0.046875 -0.59375 -0.296875 -0.890625q-0.375 -0.453125 -0.984375 -0.453125q-0.546875 0 -0.921875 0.375q-0.359375 0.359375 -0.40625 0.96875zm4.281616 1.390625l0.78125 -0.125q0.0625 0.46875 0.359375 0.71875q0.3125 0.25 0.84375 0.25q0.546875 0 0.8125 -0.21875q0.265625 -0.21875 0.265625 -0.515625q0 -0.28125 -0.234375 -0.421875q-0.171875 -0.109375 -0.8125 -0.28125q-0.875 -0.21875 -1.21875 -0.375q-0.328125 -0.15625 -0.5 -0.4375q-0.171875 -0.28125 -0.171875 -0.625q0 -0.3125 0.140625 -0.578125q0.140625 -0.265625 0.390625 -0.453125q0.1875 -0.125 0.5 -0.21875q0.328125 -0.09375 0.6875 -0.09375q0.546875 0 0.953125 0.15625q0.421875 0.15625 0.625 0.421875q0.203125 0.265625 0.28125 0.71875l-0.78125 0.109375q-0.046875 -0.359375 -0.3125 -0.5625q-0.25 -0.203125 -0.703125 -0.203125q-0.546875 0 -0.78125 0.1875q-0.234375 0.171875 -0.234375 0.421875q0 0.15625 0.09375 0.265625q0.09375 0.140625 0.3125 0.21875q0.109375 0.046875 0.6875 0.203125q0.84375 0.21875 1.171875 0.359375q0.34375 0.140625 0.53125 0.421875q0.1875 0.265625 0.1875 0.671875q0 0.40625 -0.234375 0.75q-0.234375 0.34375 -0.671875 0.546875q-0.421875 0.1875 -0.984375 0.1875q-0.90625 0 -1.390625 -0.375q-0.46875 -0.390625 -0.59375 -1.125z" fill-rule="nonzero"></path><path fill="#000000" d="m15.037442 57.86026l0 -6.4375l0.78125 0l0 6.4375l-0.78125 0zm2.0880442 -5.53125l0 -0.90625l0.796875 0l0 0.90625l-0.796875 0zm0 5.53125l0 -4.671875l0.796875 0l0 4.671875l-0.796875 0zm1.7599182 -1.390625l0.78125 -0.125q0.0625 0.46875 0.359375 0.71875q0.3125 0.25 0.84375 0.25q0.546875 0 0.8125 -0.21875q0.265625 -0.21875 0.265625 -0.515625q0 -0.28125 -0.234375 -0.421875q-0.171875 -0.109375 -0.8125 -0.28125q-0.875 -0.21875 -1.21875 -0.375q-0.328125 -0.15625 -0.5 -0.4375q-0.171875 -0.28125 -0.171875 -0.625q0 -0.3125 0.140625 -0.578125q0.140625 -0.265625 0.390625 -0.453125q0.1875 -0.125 0.5 -0.21875q0.328125 -0.09375 0.6875 -0.09375q0.546875 0 0.953125 0.15625q0.421875 0.15625 0.625 0.421875q0.203125 0.265625 0.28125 0.71875l-0.78125 0.109375q-0.046875 -0.359375 -0.3125 -0.5625q-0.25 -0.203125 -0.703125 -0.203125q-0.546875 0 -0.78125 0.1875q-0.234375 0.171875 -0.234375 0.421875q0 0.15625 0.09375 0.265625q0.09375 0.140625 0.3125 0.21875q0.109375 0.046875 0.6875 0.203125q0.84375 0.21875 1.171875 0.359375q0.34375 0.140625 0.53125 0.421875q0.1875 0.265625 0.1875 0.671875q0 0.40625 -0.234375 0.75q-0.234375 0.34375 -0.671875 0.546875q-0.421875 0.1875 -0.984375 0.1875q-0.90625 0 -1.390625 -0.375q-0.46875 -0.390625 -0.59375 -1.125zm6.7109375 0.6875l0.109375 0.6875q-0.34375 0.078125 -0.59375 0.078125q-0.4375 0 -0.671875 -0.140625q-0.234375 -0.140625 -0.34375 -0.359375q-0.09375 -0.21875 -0.09375 -0.921875l0 -2.6875l-0.578125 0l0 -0.625l0.578125 0l0 -1.15625l0.796875 -0.46875l0 1.625l0.796875 0l0 0.625l-0.796875 0l0 2.71875q0 0.34375 0.03125 0.4375q0.046875 0.09375 0.140625 0.15625q0.09375 0.0625 0.265625 0.0625q0.140625 0 0.359375 -0.03125zm3.636444 0.703125l0 -4.046875l-0.703125 0l0 -0.625l0.703125 0l0 -0.484375q0 -0.484375 0.078125 -0.703125q0.125 -0.3125 0.40625 -0.5q0.296875 -0.1875 0.8125 -0.1875q0.328125 0 0.734375 0.078125l-0.125 0.6875q-0.234375 -0.046875 -0.453125 -0.046875q-0.359375 0 -0.515625 0.15625q-0.15625 0.15625 -0.15625 0.578125l0 0.421875l0.921875 0l0 0.625l-0.921875 0l0 4.046875l-0.78125 0zm2.4041595 -5.53125l0 -0.90625l0.7968731 0l0 0.90625l-0.7968731 0zm0 5.53125l0 -4.671875l0.7968731 0l0 4.671875l-0.7968731 0zm2.0567913 0l0 -6.4375l0.78125 0l0 6.4375l-0.78125 0zm5.275543 -1.5l0.828125 0.09375q-0.203125 0.71875 -0.734375 1.125q-0.515625 0.390625 -1.328125 0.390625q-1.015625 0 -1.625 -0.625q-0.59375 -0.640625 -0.59375 -1.78125q0 -1.171875 0.609375 -1.8125q0.609375 -0.65625 1.578125 -0.65625q0.9375 0 1.515625 0.640625q0.59375 0.625 0.59375 1.78125q0 0.078125 0 0.21875l-3.484375 0q0.046875 0.765625 0.4375 1.171875q0.390625 0.40625 0.984375 0.40625q0.4375 0 0.734375 -0.21875q0.3125 -0.234375 0.484375 -0.734375zm-2.59375 -1.28125l2.609375 0q-0.046875 -0.59375 -0.296875 -0.890625q-0.375 -0.453125 -0.984375 -0.453125q-0.546875 0 -0.921875 0.375q-0.359375 0.359375 -0.40625 0.96875z" fill-rule="nonzero"></path><path fill="#cfe2f3" d="m150.49606 48.90026l74.138565 -49.425194l74.138565 49.425194l-74.138565 49.4252z" fill-rule="nonzero"></path><path stroke="#000000" stroke-width="1.0" stroke-linejoin="round" stroke-linecap="butt" d="m150.49606 48.90026l74.138565 -49.425194l74.138565 49.425194l-74.138565 49.4252z" fill-rule="nonzero"></path><path fill="#000000" d="m215.25972 35.860264l0 -6.437502l4.34375 0l0 0.75l-3.484375 0l0 2.000002l3.015625 0l0 0.765625l-3.015625 0l0 2.921875l-0.859375 0zm5.557373 -5.531252l0 -0.90625l0.796875 0l0 0.90625l-0.796875 0zm0 5.531252l0 -4.671877l0.796875 0l0 4.671877l-0.796875 0zm2.0724182 0l0 -4.671877l0.71875 0l0 0.671875q0.5 -0.765625 1.484375 -0.765625q0.421875 0 0.765625 0.15625q0.359375 0.140625 0.53125 0.390625q0.171875 0.234375 0.25 0.5781269q0.046875 0.21875 0.046875 0.765625l0 2.875l-0.796875 0l0 -2.84375q0 -0.484375 -0.09375 -0.71875q-0.09375 -0.234375 -0.328125 -0.3750019q-0.234375 -0.15625 -0.546875 -0.15625q-0.5 0 -0.875 0.3281269q-0.359375 0.3125 -0.359375 1.21875l0 2.546875l-0.796875 0zm8.234741 -0.578125q-0.4375 0.375 -0.84375 0.53125q-0.40625 0.15625 -0.875 0.15625q-0.765625 0 -1.1875 -0.375q-0.40625 -0.375 -0.40625 -0.96875q0 -0.34375 0.15625 -0.625q0.15625 -0.28125 0.40625 -0.453125q0.25 -0.171875 0.5625 -0.265625q0.234375 -0.046875 0.703125 -0.109375q0.96875 -0.109375 1.421875 -0.28125q0 -0.15625 0 -0.203125q0 -0.484375 -0.21875 -0.671875q-0.3125 -0.2812519 -0.90625 -0.2812519q-0.5625 0 -0.828125 0.203125q-0.265625 0.1875019 -0.390625 0.6875019l-0.765625 -0.09375q0.09375 -0.5 0.328125 -0.7968769q0.25 -0.3125 0.703125 -0.46875q0.46875 -0.171875 1.0625 -0.171875q0.609375 0 0.96875 0.140625q0.375 0.140625 0.546875 0.359375q0.1875 0.203125 0.25 0.5312519q0.046875 0.203125 0.046875 0.71875l0 1.0625q0 1.09375 0.046875 1.390625q0.046875 0.296875 0.203125 0.5625l-0.828125 0q-0.125 -0.25 -0.15625 -0.578125zm-0.0625 -1.765625q-0.4375 0.171875 -1.296875 0.296875q-0.484375 0.078125 -0.6875 0.171875q-0.203125 0.078125 -0.3125 0.25q-0.109375 0.171875 -0.109375 0.375q0 0.3125 0.234375 0.53125q0.234375 0.203125 0.703125 0.203125q0.453125 0 0.8125 -0.203125q0.359375 -0.203125 0.53125 -0.546875q0.125 -0.265625 0.125 -0.78125l0 -0.296875zm2.1878662 2.34375l0 -6.437502l0.78125 0l0 6.437502l-0.78125 0z" fill-rule="nonzero"></path><path fill="#000000" d="m208.22554 46.860264l0 -6.4375l2.859375 0q0.859375 0 1.3125 0.171875q0.453125 0.171875 0.71875 0.609375q0.265625 0.4375 0.265625 0.96875q0 0.6875 -0.453125 1.15625q-0.4375 0.46875 -1.359375 0.59375q0.328125 0.171875 0.515625 0.328125q0.375 0.34375 0.703125 0.859375l1.125 1.75l-1.078125 0l-0.859375 -1.34375q-0.359375 -0.578125 -0.609375 -0.875q-0.234375 -0.3125 -0.4375 -0.4375q-0.1875 -0.125 -0.375 -0.171875q-0.15625 -0.03125 -0.484375 -0.03125l-0.984375 0l0 2.859375l-0.859375 0zm0.859375 -3.59375l1.828125 0q0.59375 0 0.921875 -0.125q0.328125 -0.125 0.5 -0.390625q0.171875 -0.265625 0.171875 -0.578125q0 -0.453125 -0.34375 -0.75q-0.328125 -0.296875 -1.046875 -0.296875l-2.03125 0l0 2.140625zm8.814606 3.015625q-0.4375 0.375 -0.84375 0.53125q-0.40625 0.15625 -0.875 0.15625q-0.765625 0 -1.1875 -0.375q-0.40625 -0.375 -0.40625 -0.96875q0 -0.34375 0.15625 -0.625q0.15625 -0.28125 0.40625 -0.453125q0.25 -0.171875 0.5625 -0.265625q0.234375 -0.046875 0.703125 -0.109375q0.96875 -0.109375 1.421875 -0.28125q0 -0.15625 0 -0.203125q0 -0.484375 -0.21875 -0.671875q-0.3125 -0.28125 -0.90625 -0.28125q-0.5625 0 -0.828125 0.203125q-0.265625 0.1875 -0.390625 0.6875l-0.765625 -0.09375q0.09375 -0.5 0.328125 -0.796875q0.25 -0.3125 0.703125 -0.46875q0.46875 -0.171875 1.0625 -0.171875q0.609375 0 0.96875 0.140625q0.375 0.140625 0.546875 0.359375q0.1875 0.203125 0.25 0.53125q0.046875 0.203125 0.046875 0.71875l0 1.0625q0 1.09375 0.046875 1.390625q0.046875 0.296875 0.203125 0.5625l-0.828125 0q-0.125 -0.25 -0.15625 -0.578125zm-0.0625 -1.765625q-0.4375 0.171875 -1.296875 0.296875q-0.484375 0.078125 -0.6875 0.171875q-0.203125 0.078125 -0.3125 0.25q-0.109375 0.171875 -0.109375 0.375q0 0.3125 0.234375 0.53125q0.234375 0.203125 0.703125 0.203125q0.453125 0 0.8125 -0.203125q0.359375 -0.203125 0.53125 -0.546875q0.125 -0.265625 0.125 -0.78125l0 -0.296875zm2.2034912 2.34375l0 -4.671875l0.71875 0l0 0.671875q0.5 -0.765625 1.484375 -0.765625q0.421875 0 0.765625 0.15625q0.359375 0.140625 0.53125 0.390625q0.171875 0.234375 0.25 0.578125q0.046875 0.21875 0.046875 0.765625l0 2.875l-0.796875 0l0 -2.84375q0 -0.484375 -0.09375 -0.71875q-0.09375 -0.234375 -0.328125 -0.375q-0.234375 -0.15625 -0.546875 -0.15625q-0.5 0 -0.875 0.328125q-0.359375 0.3125 -0.359375 1.21875l0 2.546875l-0.796875 0zm5.187866 0l0 -6.4375l0.796875 0l0 3.671875l1.875 -1.90625l1.015625 0l-1.78125 1.734375l1.96875 2.9375l-0.984375 0l-1.53125 -2.390625l-0.5625 0.546875l0 1.84375l-0.796875 0zm4.6640625 -5.53125l0 -0.90625l0.796875 0l0 0.90625l-0.796875 0zm0 5.53125l0 -4.671875l0.796875 0l0 4.671875l-0.796875 0zm2.0724182 0l0 -4.671875l0.71875 0l0 0.671875q0.5 -0.765625 1.484375 -0.765625q0.421875 0 0.765625 0.15625q0.359375 0.140625 0.53125 0.390625q0.171875 0.234375 0.25 0.578125q0.046875 0.21875 0.046875 0.765625l0 2.875l-0.796875 0l0 -2.84375q0 -0.484375 -0.09375 -0.71875q-0.09375 -0.234375 -0.328125 -0.375q-0.234375 -0.15625 -0.546875 -0.15625q-0.5 0 -0.875 0.328125q-0.359375 0.3125 -0.359375 1.21875l0 2.546875l-0.796875 0zm5.047241 0.390625l0.765625 0.109375q0.046875 0.359375 0.265625 0.515625q0.296875 0.21875 0.8125 0.21875q0.546875 0 0.84375 -0.21875q0.296875 -0.21875 0.40625 -0.609375q0.0625 -0.25 0.046875 -1.015625q-0.515625 0.609375 -1.28125 0.609375q-0.96875 0 -1.5 -0.6875q-0.515625 -0.703125 -0.515625 -1.671875q0 -0.671875 0.234375 -1.234375q0.25 -0.5625 0.703125 -0.859375q0.453125 -0.3125 1.078125 -0.3125q0.828125 0 1.359375 0.65625l0 -0.5625l0.734375 0l0 4.03125q0 1.09375 -0.234375 1.546875q-0.21875 0.453125 -0.703125 0.71875q-0.46875 0.265625 -1.171875 0.265625q-0.84375 0 -1.359375 -0.375q-0.5 -0.375 -0.484375 -1.125zm0.65625 -2.8125q0 0.921875 0.359375 1.34375q0.359375 0.421875 0.90625 0.421875q0.546875 0 0.921875 -0.421875q0.375 -0.421875 0.375 -1.3125q0 -0.859375 -0.390625 -1.296875q-0.375 -0.4375 -0.90625 -0.4375q-0.53125 0 -0.90625 0.4375q-0.359375 0.421875 -0.359375 1.265625z" fill-rule="nonzero"></path><path fill="#000000" d="m205.26108 55.329014l0 -0.75l2.734375 0l0 2.390625q-0.625 0.5 -1.296875 0.75q-0.671875 0.25 -1.375 0.25q-0.9375 0 -1.71875 -0.40625q-0.78125 -0.40625 -1.171875 -1.171875q-0.390625 -0.765625 -0.390625 -1.71875q0 -0.9375 0.390625 -1.75q0.390625 -0.828125 1.125 -1.21875q0.75 -0.390625 1.703125 -0.390625q0.703125 0 1.265625 0.234375q0.5625 0.21875 0.875 0.625q0.328125 0.390625 0.5 1.046875l-0.765625 0.203125q-0.15625 -0.484375 -0.375 -0.765625q-0.203125 -0.28125 -0.609375 -0.453125q-0.390625 -0.171875 -0.890625 -0.171875q-0.578125 0 -1.015625 0.1875q-0.421875 0.171875 -0.6875 0.46875q-0.25 0.28125 -0.390625 0.625q-0.25 0.609375 -0.25 1.296875q0 0.875 0.296875 1.453125q0.296875 0.578125 0.859375 0.859375q0.5625 0.28125 1.203125 0.28125q0.5625 0 1.078125 -0.203125q0.53125 -0.21875 0.8125 -0.46875l0 -1.203125l-1.90625 0zm7.333847 1.03125l0.828125 0.09375q-0.203125 0.71875 -0.734375 1.125q-0.515625 0.390625 -1.328125 0.390625q-1.015625 0 -1.625 -0.625q-0.59375 -0.640625 -0.59375 -1.78125q0 -1.171875 0.609375 -1.8125q0.609375 -0.65625 1.578125 -0.65625q0.9375 0 1.515625 0.640625q0.59375 0.625 0.59375 1.78125q0 0.078125 0 0.21875l-3.484375 0q0.046875 0.765625 0.4375 1.171875q0.390625 0.40625 0.984375 0.40625q0.4375 0 0.734375 -0.21875q0.3125 -0.234375 0.484375 -0.734375zm-2.59375 -1.28125l2.609375 0q-0.046875 -0.59375 -0.296875 -0.890625q-0.375 -0.453125 -0.984375 -0.453125q-0.546875 0 -0.921875 0.375q-0.359375 0.359375 -0.40625 0.96875zm4.594116 2.78125l0 -4.671875l0.71875 0l0 0.671875q0.5 -0.765625 1.484375 -0.765625q0.421875 0 0.765625 0.15625q0.359375 0.140625 0.53125 0.390625q0.171875 0.234375 0.25 0.578125q0.046875 0.21875 0.046875 0.765625l0 2.875l-0.796875 0l0 -2.84375q0 -0.484375 -0.09375 -0.71875q-0.09375 -0.234375 -0.328125 -0.375q-0.234375 -0.15625 -0.546875 -0.15625q-0.5 0 -0.875 0.328125q-0.359375 0.3125 -0.359375 1.21875l0 2.546875l-0.796875 0zm8.375366 -1.5l0.828125 0.09375q-0.203125 0.71875 -0.734375 1.125q-0.515625 0.390625 -1.328125 0.390625q-1.015625 0 -1.625 -0.625q-0.59375 -0.640625 -0.59375 -1.78125q0 -1.171875 0.609375 -1.8125q0.609375 -0.65625 1.578125 -0.65625q0.9375 0 1.515625 0.640625q0.59375 0.625 0.59375 1.78125q0 0.078125 0 0.21875l-3.484375 0q0.046875 0.765625 0.4375 1.171875q0.390625 0.40625 0.984375 0.40625q0.4375 0 0.734375 -0.21875q0.3125 -0.234375 0.484375 -0.734375zm-2.59375 -1.28125l2.609375 0q-0.046875 -0.59375 -0.296875 -0.890625q-0.375 -0.453125 -0.984375 -0.453125q-0.546875 0 -0.921875 0.375q-0.359375 0.359375 -0.40625 0.96875zm4.578491 2.78125l0 -4.671875l0.71875 0l0 0.71875q0.265625 -0.5 0.5 -0.65625q0.234375 -0.15625 0.515625 -0.15625q0.390625 0 0.8125 0.25l-0.28125 0.734375q-0.28125 -0.171875 -0.578125 -0.171875q-0.25 0 -0.46875 0.15625q-0.203125 0.15625 -0.296875 0.4375q-0.125 0.421875 -0.125 0.921875l0 2.4375l-0.796875 0zm6.1688385 -0.578125q-0.4375 0.375 -0.84375 0.53125q-0.40625 0.15625 -0.875 0.15625q-0.765625 0 -1.1875 -0.375q-0.40625 -0.375 -0.40625 -0.96875q0 -0.34375 0.15625 -0.625q0.15625 -0.28125 0.40625 -0.453125q0.25 -0.171875 0.5625 -0.265625q0.234375 -0.046875 0.703125 -0.109375q0.96875 -0.109375 1.421875 -0.28125q0 -0.15625 0 -0.203125q0 -0.484375 -0.21875 -0.671875q-0.3125 -0.28125 -0.90625 -0.28125q-0.5625 0 -0.828125 0.203125q-0.265625 0.1875 -0.390625 0.6875l-0.765625 -0.09375q0.09375 -0.5 0.328125 -0.796875q0.25 -0.3125 0.703125 -0.46875q0.46875 -0.171875 1.0625 -0.171875q0.609375 0 0.96875 0.140625q0.375 0.140625 0.546875 0.359375q0.1875 0.203125 0.25 0.53125q0.046875 0.203125 0.046875 0.71875l0 1.0625q0 1.09375 0.046875 1.390625q0.046875 0.296875 0.203125 0.5625l-0.828125 0q-0.125 -0.25 -0.15625 -0.578125zm-0.0625 -1.765625q-0.4375 0.171875 -1.296875 0.296875q-0.484375 0.078125 -0.6875 0.171875q-0.203125 0.078125 -0.3125 0.25q-0.109375 0.171875 -0.109375 0.375q0 0.3125 0.234375 0.53125q0.234375 0.203125 0.703125 0.203125q0.453125 0 0.8125 -0.203125q0.359375 -0.203125 0.53125 -0.546875q0.125 -0.265625 0.125 -0.78125l0 -0.296875zm3.9378662 1.640625l0.109375 0.6875q-0.34375 0.078125 -0.59375 0.078125q-0.4375 0 -0.671875 -0.140625q-0.234375 -0.140625 -0.34375 -0.359375q-0.09375 -0.21875 -0.09375 -0.921875l0 -2.6875l-0.578125 0l0 -0.625l0.578125 0l0 -1.15625l0.796875 -0.46875l0 1.625l0.796875 0l0 0.625l-0.796875 0l0 2.71875q0 0.34375 0.03125 0.4375q0.046875 0.09375 0.140625 0.15625q0.09375 0.0625 0.265625 0.0625q0.140625 0 0.359375 -0.03125zm0.85728455 -4.828125l0 -0.90625l0.796875 0l0 0.90625l-0.796875 0zm0 5.53125l0 -4.671875l0.796875 0l0 4.671875l-0.796875 0zm1.7755432 -2.328125q0 -1.296875 0.71875 -1.921875q0.609375 -0.515625 1.46875 -0.515625q0.96875 0 1.578125 0.625q0.609375 0.625 0.609375 1.734375q0 0.90625 -0.28125 1.421875q-0.265625 0.515625 -0.78125 0.8125q-0.515625 0.28125 -1.125 0.28125q-0.984375 0 -1.59375 -0.625q-0.59375 -0.640625 -0.59375 -1.8125zm0.8125 0q0 0.890625 0.390625 1.34375q0.390625 0.4375 0.984375 0.4375q0.59375 0 0.984375 -0.4375q0.390625 -0.453125 0.390625 -1.375q0 -0.859375 -0.390625 -1.3125q-0.390625 -0.453125 -0.984375 -0.453125q-0.59375 0 -0.984375 0.453125q-0.390625 0.4375 -0.390625 1.34375zm4.672241 2.328125l0 -4.671875l0.71875 0l0 0.671875q0.5 -0.765625 1.484375 -0.765625q0.421875 0 0.765625 0.15625q0.359375 0.140625 0.53125 0.390625q0.171875 0.234375 0.25 0.578125q0.046875 0.21875 0.046875 0.765625l0 2.875l-0.796875 0l0 -2.84375q0 -0.484375 -0.09375 -0.71875q-0.09375 -0.234375 -0.328125 -0.375q-0.234375 -0.15625 -0.546875 -0.15625q-0.5 0 -0.875 0.328125q-0.359375 0.3125 -0.359375 1.21875l0 2.546875l-0.796875 0z" fill-rule="nonzero"></path><path fill="#000000" d="m213.1188 66.79777l0.796875 -0.078125q0.0625 0.484375 0.265625 0.796875q0.21875 0.3125 0.65625 0.5q0.4375 0.1875 0.984375 0.1875q0.484375 0 0.859375 -0.140625q0.375 -0.140625 0.5625 -0.390625q0.1875 -0.265625 0.1875 -0.5625q0 -0.296875 -0.1875 -0.515625q-0.171875 -0.234375 -0.578125 -0.390625q-0.25 -0.109375 -1.140625 -0.3125q-0.890625 -0.21875 -1.25 -0.40625q-0.453125 -0.234375 -0.6875 -0.59375q-0.21875 -0.359375 -0.21875 -0.8125q0 -0.4843788 0.265625 -0.9062538q0.28125 -0.421875 0.8125 -0.640625q0.53125 -0.21875 1.1875 -0.21875q0.71875 0 1.265625 0.234375q0.546875 0.21875 0.828125 0.671875q0.296875 0.453125 0.328125 1.0156288l-0.828125 0.0625q-0.0625 -0.6093788 -0.4375 -0.9218788q-0.375 -0.3125 -1.125 -0.3125q-0.765625 0 -1.125 0.28125q-0.359375 0.28125 -0.359375 0.6875038q0 0.34375 0.25 0.5625q0.25 0.234375 1.28125 0.46875q1.046875 0.234375 1.4375 0.40625q0.5625 0.25 0.828125 0.65625q0.265625 0.390625 0.265625 0.921875q0 0.5 -0.296875 0.96875q-0.296875 0.453125 -0.84375 0.703125q-0.546875 0.25 -1.234375 0.25q-0.875 0 -1.46875 -0.25q-0.59375 -0.265625 -0.9375 -0.765625q-0.328125 -0.515625 -0.34375 -1.15625zm9.4561615 0.359375l0.78125 0.09375q-0.125 0.8125 -0.65625 1.265625q-0.53125 0.453125 -1.296875 0.453125q-0.953125 0 -1.53125 -0.625q-0.578125 -0.625 -0.578125 -1.796875q0 -0.765625 0.25 -1.328125q0.25 -0.5625 0.75 -0.84375q0.515625 -0.28125 1.125 -0.28125q0.75 0 1.234375 0.390625q0.484375 0.375 0.625 1.078125l-0.765625 0.125q-0.109375 -0.46875 -0.390625 -0.703125q-0.28125 -0.25 -0.671875 -0.25q-0.609375 0 -0.984375 0.4375q-0.359375 0.421875 -0.359375 1.34375q0 0.953125 0.359375 1.375q0.359375 0.421875 0.9375 0.421875q0.46875 0 0.78125 -0.28125q0.3125 -0.28125 0.390625 -0.875zm1.6015625 1.703125l0 -4.671875l0.71875 0l0 0.71875q0.265625 -0.5 0.5 -0.65625q0.234375 -0.15625 0.515625 -0.15625q0.390625 0 0.8125 0.25l-0.28125 0.734375q-0.28125 -0.171875 -0.578125 -0.171875q-0.25 0 -0.46875 0.15625q-0.203125 0.15625 -0.296875 0.4375q-0.125 0.421875 -0.125 0.921875l0 2.4375l-0.796875 0zm3.1219635 -5.531254l0 -0.90625l0.796875 0l0 0.90625l-0.796875 0zm0 5.531254l0 -4.671875l0.796875 0l0 4.671875l-0.796875 0zm2.0724182 1.78125l0 -6.453125l0.71875 0l0 0.609375q0.25 -0.359375 0.5625 -0.53125q0.328125 -0.171875 0.796875 -0.171875q0.59375 0 1.046875 0.3125q0.453125 0.296875 0.6875 0.859375q0.234375 0.5625 0.234375 1.21875q0 0.71875 -0.265625 1.296875q-0.25 0.578125 -0.734375 0.890625q-0.484375 0.296875 -1.03125 0.296875q-0.390625 0 -0.703125 -0.171875q-0.3125 -0.171875 -0.515625 -0.421875l0 2.265625l-0.796875 0zm0.71875 -4.09375q0 0.90625 0.359375 1.34375q0.375 0.421875 0.890625 0.421875q0.515625 0 0.890625 -0.4375q0.390625 -0.453125 0.390625 -1.390625q0 -0.890625 -0.375 -1.328125q-0.359375 -0.453125 -0.875 -0.453125q-0.5 0 -0.890625 0.484375q-0.390625 0.46875 -0.390625 1.359375zm6.203491 1.609375l0.109375 0.6875q-0.34375 0.078125 -0.59375 0.078125q-0.4375 0 -0.671875 -0.140625q-0.234375 -0.140625 -0.34375 -0.359375q-0.09375 -0.21875 -0.09375 -0.921875l0 -2.6875l-0.578125 0l0 -0.625l0.578125 0l0 -1.1562538l0.796875 -0.46875l0 1.6250038l0.796875 0l0 0.625l-0.796875 0l0 2.71875q0 0.34375 0.03125 0.4375q0.046875 0.09375 0.140625 0.15625q0.09375 0.0625 0.265625 0.0625q0.140625 0 0.359375 -0.03125z" fill-rule="nonzero"></path><path fill="#d9ead3" d="m77.96608 41.64042l46.078743 0l0 -7.259842l14.519676 14.519684l-14.519676 14.519688l0 -7.259842l-46.078743 0z" fill-rule="nonzero"></path><path stroke="#000000" stroke-width="1.0" stroke-linejoin="round" stroke-linecap="butt" d="m77.96608 41.64042l46.078743 0l0 -7.259842l14.519676 14.519684l-14.519676 14.519688l0 -7.259842l-46.078743 0z" fill-rule="nonzero"></path><path fill="#000000" d="m90.05983 52.48276l0.15625 0.921875q-0.453125 0.09375 -0.796875 0.09375q-0.578125 0 -0.890625 -0.171875q-0.3125 -0.1875 -0.453125 -0.484375q-0.125 -0.296875 -0.125 -1.25l0 -3.578125l-0.765625 0l0 -0.8125l0.765625 0l0 -1.546875l1.046875 -0.625l0 2.171875l1.0625 0l0 0.8125l-1.0625 0l0 3.640625q0 0.453125 0.046875 0.578125q0.0625 0.125 0.1875 0.203125q0.125 0.078125 0.359375 0.078125q0.1875 0 0.46875 -0.03125zm1.0214844 0.9375l0 -6.21875l0.953125 0l0 0.9375q0.359375 -0.65625 0.65625 -0.859375q0.3125 -0.21875 0.6875 -0.21875q0.53125 0 1.078125 0.328125l-0.359375 0.984375q-0.390625 -0.234375 -0.765625 -0.234375q-0.359375 0 -0.640625 0.21875q-0.265625 0.203125 -0.375 0.578125q-0.1875 0.5625 -0.1875 1.21875l0 3.265625l-1.046875 0zm4.0117188 -7.375l0 -1.21875l1.0625 0l0 1.21875l-1.0625 0zm0 7.375l0 -6.21875l1.0625 0l0 6.21875l-1.0625 0zm2.6660156 2.390625l0 -8.609375l0.953125 0l0 0.796875q0.34375 -0.46875 0.765625 -0.703125q0.4375 -0.234375 1.046875 -0.234375q0.796875 0 1.40625 0.40625q0.609375 0.40625 0.90625 1.15625q0.3125 0.75 0.3125 1.640625q0 0.953125 -0.34375 1.71875q-0.328125 0.765625 -0.984375 1.171875q-0.65625 0.40625 -1.375 0.40625q-0.53125 0 -0.953125 -0.21875q-0.421875 -0.234375 -0.6875 -0.5625l0 3.03125l-1.046875 0zm0.953125 -5.46875q0 1.203125 0.484375 1.78125q0.484375 0.5625 1.171875 0.5625q0.703125 0 1.203125 -0.59375q0.5 -0.59375 0.5 -1.84375q0 -1.1875 -0.484375 -1.765625q-0.484375 -0.59375 -1.171875 -0.59375q-0.671875 0 -1.1875 0.625q-0.515625 0.625 -0.515625 1.828125zm5.689453 3.078125l0 -8.59375l1.0625 0l0 8.59375l-1.0625 0zm6.9472656 -2.0l1.09375 0.125q-0.25 0.953125 -0.953125 1.484375q-0.703125 0.53125 -1.78125 0.53125q-1.359375 0 -2.171875 -0.84375q-0.796875 -0.84375 -0.796875 -2.359375q0 -1.5625 0.8125 -2.421875q0.8125 -0.875 2.09375 -0.875q1.25 0 2.03125 0.84375q0.796875 0.84375 0.796875 2.390625q0 0.09375 0 0.28125l-4.640625 0q0.0625 1.03125 0.578125 1.578125q0.515625 0.53125 1.296875 0.53125q0.578125 0 0.984375 -0.296875q0.421875 -0.3125 0.65625 -0.96875zm-3.453125 -1.703125l3.46875 0q-0.0625 -0.796875 -0.390625 -1.1875q-0.515625 -0.609375 -1.3125 -0.609375q-0.734375 0 -1.234375 0.484375q-0.484375 0.484375 -0.53125 1.3125z" fill-rule="nonzero"></path><path fill="#cfe2f3" d="m411.7244 48.900547l74.13913 -37.13283l74.1391 37.13283l-74.1391 37.13283z" fill-rule="nonzero"></path><path stroke="#000000" stroke-width="1.0" stroke-linejoin="round" stroke-linecap="butt" d="m411.7244 48.900547l74.13913 -37.13283l74.1391 37.13283l-74.1391 37.13283z" fill-rule="nonzero"></path><path fill="#000000" d="m478.20212 39.09492l0.84375 0.21875q-0.265625 1.046875 -0.96875 1.609375q-0.6875 0.546875 -1.703125 0.546875q-1.03125 0 -1.6875 -0.421875q-0.65625 -0.421875 -1.0 -1.21875q-0.328125 -0.8125 -0.328125 -1.734375q0 -1.015625 0.375 -1.765625q0.390625 -0.75 1.09375 -1.125q0.71875 -0.390625 1.5625 -0.390625q0.96875 0 1.625 0.5q0.671875 0.484375 0.921875 1.375l-0.84375 0.1875q-0.21875 -0.703125 -0.640625 -1.015625q-0.421875 -0.328125 -1.078125 -0.328125q-0.734375 0 -1.234375 0.359375q-0.5 0.359375 -0.703125 0.96875q-0.203125 0.59375 -0.203125 1.21875q0 0.828125 0.234375 1.453125q0.25 0.609375 0.75 0.90625q0.5 0.296875 1.09375 0.296875q0.71875 0 1.203125 -0.40625q0.5 -0.421875 0.6875 -1.234375zm2.1271057 2.265625l0 -6.4375l2.4375 0q0.640625 0 0.984375 0.0625q0.46875 0.078125 0.78125 0.296875q0.328125 0.21875 0.515625 0.625q0.203125 0.390625 0.203125 0.875q0 0.828125 -0.53125 1.390625q-0.515625 0.5625 -1.875 0.5625l-1.65625 0l0 2.625l-0.859375 0zm0.859375 -3.375l1.671875 0q0.8125 0 1.15625 -0.3125q0.359375 -0.3125 0.359375 -0.859375q0 -0.40625 -0.203125 -0.6875q-0.203125 -0.296875 -0.546875 -0.390625q-0.203125 -0.0625 -0.796875 -0.0625l-1.640625 0l0 2.3125zm5.3624268 3.375l0 -6.4375l2.4375 0q0.640625 0 0.984375 0.0625q0.46875 0.078125 0.78125 0.296875q0.328125 0.21875 0.515625 0.625q0.203125 0.390625 0.203125 0.875q0 0.828125 -0.53125 1.390625q-0.515625 0.5625 -1.875 0.5625l-1.65625 0l0 2.625l-0.859375 0zm0.859375 -3.375l1.671875 0q0.8125 0 1.15625 -0.3125q0.359375 -0.3125 0.359375 -0.859375q0 -0.40625 -0.203125 -0.6875q-0.203125 -0.296875 -0.546875 -0.390625q-0.203125 -0.0625 -0.796875 -0.0625l-1.640625 0l0 2.3125zm5.3780212 3.375l0 -6.4375l2.859375 0q0.859375 0 1.3125 0.171875q0.453125 0.171875 0.71875 0.609375q0.265625 0.4375 0.265625 0.96875q0 0.6875 -0.453125 1.15625q-0.4375 0.46875 -1.359375 0.59375q0.328125 0.171875 0.515625 0.328125q0.375 0.34375 0.703125 0.859375l1.125 1.75l-1.078125 0l-0.859375 -1.34375q-0.359375 -0.578125 -0.609375 -0.875q-0.234375 -0.3125 -0.4375 -0.4375q-0.1875 -0.125 -0.375 -0.171875q-0.15625 -0.03125 -0.484375 -0.03125l-0.984375 0l0 2.859375l-0.859375 0zm0.859375 -3.59375l1.828125 0q0.59375 0 0.921875 -0.125q0.328125 -0.125 0.5 -0.390625q0.171875 -0.265625 0.171875 -0.578125q0 -0.453125 -0.34375 -0.75q-0.328125 -0.296875 -1.046875 -0.296875l-2.03125 0l0 2.140625z" fill-rule="nonzero"></path><path fill="#000000" d="m464.71548 50.09492l0.84375 0.21875q-0.265625 1.046875 -0.96875 1.609375q-0.6875 0.546875 -1.703125 0.546875q-1.03125 0 -1.6875 -0.421875q-0.65625 -0.421875 -1.0 -1.21875q-0.328125 -0.8125 -0.328125 -1.734375q0 -1.015625 0.375 -1.765625q0.390625 -0.75 1.09375 -1.125q0.71875 -0.390625 1.5625 -0.390625q0.96875 0 1.625 0.5q0.671875 0.484375 0.921875 1.375l-0.84375 0.1875q-0.21875 -0.703125 -0.640625 -1.015625q-0.421875 -0.328125 -1.078125 -0.328125q-0.734375 0 -1.234375 0.359375q-0.5 0.359375 -0.703125 0.96875q-0.203125 0.59375 -0.203125 1.21875q0 0.828125 0.234375 1.453125q0.25 0.609375 0.75 0.90625q0.5 0.296875 1.09375 0.296875q0.71875 0 1.203125 -0.40625q0.5 -0.421875 0.6875 -1.234375zm1.7364807 -0.0625q0 -1.296875 0.71875 -1.921875q0.609375 -0.515625 1.46875 -0.515625q0.96875 0 1.578125 0.625q0.609375 0.625 0.609375 1.734375q0 0.90625 -0.28125 1.421875q-0.265625 0.515625 -0.78125 0.8125q-0.515625 0.28125 -1.125 0.28125q-0.984375 0 -1.59375 -0.625q-0.59375 -0.640625 -0.59375 -1.8125zm0.8125 0q0 0.890625 0.390625 1.34375q0.390625 0.4375 0.984375 0.4375q0.59375 0 0.984375 -0.4375q0.390625 -0.453125 0.390625 -1.375q0 -0.859375 -0.390625 -1.3125q-0.390625 -0.453125 -0.984375 -0.453125q-0.59375 0 -0.984375 0.453125q-0.390625 0.4375 -0.390625 1.34375zm4.672241 2.328125l0 -4.671875l0.703125 0l0 0.65625q0.21875 -0.34375 0.578125 -0.546875q0.375 -0.203125 0.84375 -0.203125q0.515625 0 0.84375 0.21875q0.328125 0.203125 0.46875 0.59375q0.5625 -0.8125 1.4375 -0.8125q0.703125 0 1.078125 0.390625q0.375 0.375 0.375 1.171875l0 3.203125l-0.796875 0l0 -2.9375q0 -0.484375 -0.078125 -0.6875q-0.0625 -0.203125 -0.265625 -0.328125q-0.203125 -0.140625 -0.484375 -0.140625q-0.484375 0 -0.8125 0.328125q-0.328125 0.328125 -0.328125 1.046875l0 2.71875l-0.796875 0l0 -3.03125q0 -0.53125 -0.1875 -0.796875q-0.1875 -0.265625 -0.625 -0.265625q-0.34375 0 -0.625 0.1875q-0.28125 0.171875 -0.40625 0.515625q-0.125 0.328125 -0.125 0.96875l0 2.421875l-0.796875 0zm7.7703857 1.78125l0 -6.453125l0.71875 0l0 0.609375q0.25 -0.359375 0.5625 -0.53125q0.328125 -0.171875 0.796875 -0.171875q0.59375 0 1.046875 0.3125q0.453125 0.296875 0.6875 0.859375q0.234375 0.5625 0.234375 1.21875q0 0.71875 -0.265625 1.296875q-0.25 0.578125 -0.734375 0.890625q-0.484375 0.296875 -1.03125 0.296875q-0.390625 0 -0.703125 -0.171875q-0.3125 -0.171875 -0.515625 -0.421875l0 2.265625l-0.796875 0zm0.71875 -4.09375q0 0.90625 0.359375 1.34375q0.375 0.421875 0.890625 0.421875q0.515625 0 0.890625 -0.4375q0.390625 -0.453125 0.390625 -1.390625q0 -0.890625 -0.375 -1.328125q-0.359375 -0.453125 -0.875 -0.453125q-0.5 0 -0.890625 0.484375q-0.390625 0.46875 -0.390625 1.359375zm7.531616 2.3125l0 -0.6875q-0.546875 0.796875 -1.484375 0.796875q-0.40625 0 -0.765625 -0.15625q-0.359375 -0.171875 -0.546875 -0.40625q-0.171875 -0.234375 -0.234375 -0.578125q-0.046875 -0.234375 -0.046875 -0.75l0 -2.890625l0.78125 0l0 2.59375q0 0.625 0.0625 0.828125q0.0625 0.3125 0.296875 0.5q0.25 0.171875 0.609375 0.171875q0.359375 0 0.671875 -0.171875q0.3125 -0.1875 0.4375 -0.5q0.125 -0.3125 0.125 -0.921875l0 -2.5l0.796875 0l0 4.671875l-0.703125 0zm3.8597412 -0.703125l0.109375 0.6875q-0.34375 0.078125 -0.59375 0.078125q-0.4375 0 -0.671875 -0.140625q-0.234375 -0.140625 -0.34375 -0.359375q-0.09375 -0.21875 -0.09375 -0.921875l0 -2.6875l-0.578125 0l0 -0.625l0.578125 0l0 -1.15625l0.796875 -0.46875l0 1.625l0.796875 0l0 0.625l-0.796875 0l0 2.71875q0 0.34375 0.03125 0.4375q0.046875 0.09375 0.140625 0.15625q0.09375 0.0625 0.265625 0.0625q0.140625 0 0.359375 -0.03125zm3.9041748 0.125q-0.4375 0.375 -0.84375 0.53125q-0.40625 0.15625 -0.875 0.15625q-0.765625 0 -1.1875 -0.375q-0.40625 -0.375 -0.40625 -0.96875q0 -0.34375 0.15625 -0.625q0.15625 -0.28125 0.40625 -0.453125q0.25 -0.171875 0.5625 -0.265625q0.234375 -0.046875 0.703125 -0.109375q0.96875 -0.109375 1.421875 -0.28125q0 -0.15625 0 -0.203125q0 -0.484375 -0.21875 -0.671875q-0.3125 -0.28125 -0.90625 -0.28125q-0.5625 0 -0.828125 0.203125q-0.265625 0.1875 -0.390625 0.6875l-0.765625 -0.09375q0.09375 -0.5 0.328125 -0.796875q0.25 -0.3125 0.703125 -0.46875q0.46875 -0.171875 1.0625 -0.171875q0.609375 0 0.96875 0.140625q0.375 0.140625 0.546875 0.359375q0.1875 0.203125 0.25 0.53125q0.046875 0.203125 0.046875 0.71875l0 1.0625q0 1.09375 0.046875 1.390625q0.046875 0.296875 0.203125 0.5625l-0.828125 0q-0.125 -0.25 -0.15625 -0.578125zm-0.0625 -1.765625q-0.4375 0.171875 -1.296875 0.296875q-0.484375 0.078125 -0.6875 0.171875q-0.203125 0.078125 -0.3125 0.25q-0.109375 0.171875 -0.109375 0.375q0 0.3125 0.234375 0.53125q0.234375 0.203125 0.703125 0.203125q0.453125 0 0.8125 -0.203125q0.359375 -0.203125 0.53125 -0.546875q0.125 -0.265625 0.125 -0.78125l0 -0.296875zm3.9378662 1.640625l0.109375 0.6875q-0.34375 0.078125 -0.59375 0.078125q-0.4375 0 -0.671875 -0.140625q-0.234375 -0.140625 -0.34375 -0.359375q-0.09375 -0.21875 -0.09375 -0.921875l0 -2.6875l-0.578125 0l0 -0.625l0.578125 0l0 -1.15625l0.796875 -0.46875l0 1.625l0.796875 0l0 0.625l-0.796875 0l0 2.71875q0 0.34375 0.03125 0.4375q0.046875 0.09375 0.140625 0.15625q0.09375 0.0625 0.265625 0.0625q0.140625 0 0.359375 -0.03125zm0.8572693 -4.828125l0 -0.90625l0.796875 0l0 0.90625l-0.796875 0zm0 5.53125l0 -4.671875l0.796875 0l0 4.671875l-0.796875 0zm1.7755432 -2.328125q0 -1.296875 0.71875 -1.921875q0.609375 -0.515625 1.46875 -0.515625q0.96875 0 1.578125 0.625q0.609375 0.625 0.609375 1.734375q0 0.90625 -0.28125 1.421875q-0.265625 0.515625 -0.78125 0.8125q-0.515625 0.28125 -1.125 0.28125q-0.984375 0 -1.59375 -0.625q-0.59375 -0.640625 -0.59375 -1.8125zm0.8125 0q0 0.890625 0.390625 1.34375q0.390625 0.4375 0.984375 0.4375q0.59375 0 0.984375 -0.4375q0.390625 -0.453125 0.390625 -1.375q0 -0.859375 -0.390625 -1.3125q-0.390625 -0.453125 -0.984375 -0.453125q-0.59375 0 -0.984375 0.453125q-0.390625 0.4375 -0.390625 1.34375zm4.672241 2.328125l0 -4.671875l0.71875 0l0 0.671875q0.5 -0.765625 1.484375 -0.765625q0.421875 0 0.765625 0.15625q0.359375 0.140625 0.53125 0.390625q0.171875 0.234375 0.25 0.578125q0.046875 0.21875 0.046875 0.765625l0 2.875l-0.796875 0l0 -2.84375q0 -0.484375 -0.09375 -0.71875q-0.09375 -0.234375 -0.328125 -0.375q-0.234375 -0.15625 -0.546875 -0.15625q-0.5 0 -0.875 0.328125q-0.359375 0.3125 -0.359375 1.21875l0 2.546875l-0.796875 0z" fill-rule="nonzero"></path><path fill="#000000" d="m472.05942 63.360546l0 -6.4375l4.65625 0l0 0.75l-3.8125 0l0 1.984375l3.5625 0l0 0.75l-3.5625 0l0 2.1875l3.953125 0l0 0.765625l-4.796875 0zm6.0968018 0l0 -4.671875l0.71875 0l0 0.671875q0.5 -0.765625 1.484375 -0.765625q0.421875 0 0.765625 0.15625q0.359375 0.140625 0.53125 0.390625q0.171875 0.234375 0.25 0.578125q0.046875 0.21875 0.046875 0.765625l0 2.875l-0.796875 0l0 -2.84375q0 -0.484375 -0.09375 -0.71875q-0.09375 -0.234375 -0.328125 -0.375q-0.234375 -0.15625 -0.546875 -0.15625q-0.5 0 -0.875 0.328125q-0.359375 0.3125 -0.359375 1.21875l0 2.546875l-0.796875 0zm5.047241 0.390625l0.765625 0.109375q0.046875 0.3593712 0.265625 0.5156212q0.296875 0.21875 0.8125 0.21875q0.546875 0 0.84375 -0.21875q0.296875 -0.21875 0.40625 -0.6093712q0.0625 -0.25 0.046875 -1.015625q-0.515625 0.609375 -1.28125 0.609375q-0.96875 0 -1.5 -0.6875q-0.515625 -0.703125 -0.515625 -1.671875q0 -0.671875 0.234375 -1.234375q0.25 -0.5625 0.703125 -0.859375q0.453125 -0.3125 1.078125 -0.3125q0.828125 0 1.359375 0.65625l0 -0.5625l0.734375 0l0 4.03125q0 1.09375 -0.234375 1.5468712q-0.21875 0.453125 -0.703125 0.71875q-0.46875 0.265625 -1.171875 0.265625q-0.84375 0 -1.359375 -0.375q-0.5 -0.375 -0.484375 -1.1249962zm0.65625 -2.8125q0 0.921875 0.359375 1.34375q0.359375 0.421875 0.90625 0.421875q0.546875 0 0.921875 -0.421875q0.375 -0.421875 0.375 -1.3125q0 -0.859375 -0.390625 -1.296875q-0.375 -0.4375 -0.90625 -0.4375q-0.53125 0 -0.90625 0.4375q-0.359375 0.421875 -0.359375 1.265625zm4.672241 -3.109375l0 -0.90625l0.796875 0l0 0.90625l-0.796875 0zm0 5.53125l0 -4.671875l0.796875 0l0 4.671875l-0.796875 0zm2.0724182 0l0 -4.671875l0.71875 0l0 0.671875q0.5 -0.765625 1.484375 -0.765625q0.421875 0 0.765625 0.15625q0.359375 0.140625 0.53125 0.390625q0.171875 0.234375 0.25 0.578125q0.046875 0.21875 0.046875 0.765625l0 2.875l-0.796875 0l0 -2.84375q0 -0.484375 -0.09375 -0.71875q-0.09375 -0.234375 -0.328125 -0.375q-0.234375 -0.15625 -0.546875 -0.15625q-0.5 0 -0.875 0.328125q-0.359375 0.3125 -0.359375 1.21875l0 2.546875l-0.796875 0zm8.375366 -1.5l0.828125 0.09375q-0.203125 0.71875 -0.734375 1.125q-0.515625 0.390625 -1.328125 0.390625q-1.015625 0 -1.625 -0.625q-0.59375 -0.640625 -0.59375 -1.78125q0 -1.171875 0.609375 -1.8125q0.609375 -0.65625 1.578125 -0.65625q0.9375 0 1.515625 0.640625q0.59375 0.625 0.59375 1.78125q0 0.078125 0 0.21875l-3.484375 0q0.046875 0.765625 0.4375 1.171875q0.390625 0.40625 0.984375 0.40625q0.4375 0 0.734375 -0.21875q0.3125 -0.234375 0.484375 -0.734375zm-2.59375 -1.28125l2.609375 0q-0.046875 -0.59375 -0.296875 -0.890625q-0.375 -0.453125 -0.984375 -0.453125q-0.546875 0 -0.921875 0.375q-0.359375 0.359375 -0.40625 0.96875z" fill-rule="nonzero"></path><path fill="#f3f3f3" d="m180.3202 197.52625l0 0c0 3.7246552 19.840485 6.744095 44.314972 6.744095c24.474472 0 44.314957 -3.0194397 44.314957 -6.744095l0 40.46457c0 3.7246552 -19.840485 6.744095 -44.314957 6.744095c-24.474487 0 -44.314972 -3.0194397 -44.314972 -6.744095z" fill-rule="nonzero"></path><path fill="#f7f7f7" d="m180.3202 197.52625l0 0c0 -3.7246552 19.840485 -6.744095 44.314972 -6.744095c24.474472 0 44.314957 3.0194397 44.314957 6.744095l0 0c0 3.7246552 -19.840485 6.744095 -44.314957 6.744095c-24.474487 0 -44.314972 -3.0194397 -44.314972 -6.744095z" fill-rule="nonzero"></path><path fill="#000000" fill-opacity="0.0" d="m268.95013 197.52625l0 0c0 3.7246552 -19.840485 6.744095 -44.314957 6.744095c-24.474487 0 -44.314972 -3.0194397 -44.314972 -6.744095l0 0c0 -3.7246552 19.840485 -6.744095 44.314972 -6.744095c24.474472 0 44.314957 3.0194397 44.314957 6.744095l0 40.46457c0 3.7246552 -19.840485 6.744095 -44.314957 6.744095c-24.474487 0 -44.314972 -3.0194397 -44.314972 -6.744095l0 -40.46457" fill-rule="nonzero"></path><path stroke="#000000" stroke-width="1.0" stroke-linejoin="round" stroke-linecap="butt" d="m268.95013 197.52625l0 0c0 3.7246552 -19.840485 6.744095 -44.314957 6.744095c-24.474487 0 -44.314972 -3.0194397 -44.314972 -6.744095l0 0c0 -3.7246552 19.840485 -6.744095 44.314972 -6.744095c24.474472 0 44.314957 3.0194397 44.314957 6.744095l0 40.46457c0 3.7246552 -19.840485 6.744095 -44.314957 6.744095c-24.474487 0 -44.314972 -3.0194397 -44.314972 -6.744095l0 -40.46457" fill-rule="nonzero"></path><path fill="#000000" d="m192.93524 224.87057l0 -7.875l5.6875 0l0 0.9375l-4.65625 0l0 2.40625l4.359375 0l0 0.921875l-4.359375 0l0 2.6875l4.84375 0l0 0.921875l-5.875 0zm6.9357605 0l0 -7.875l0.96875 0l0 7.875l-0.96875 0zm6.1174774 -0.703125q-0.546875 0.453125 -1.046875 0.640625q-0.484375 0.1875 -1.0625 0.1875q-0.9375 0 -1.453125 -0.453125q-0.5 -0.46875 -0.5 -1.171875q0 -0.421875 0.1875 -0.765625q0.203125 -0.34375 0.5 -0.546875q0.3125 -0.21875 0.703125 -0.328125q0.28125 -0.078125 0.859375 -0.140625q1.171875 -0.140625 1.71875 -0.34375q0.015625 -0.1875 0.015625 -0.25q0 -0.59375 -0.28125 -0.828125q-0.359375 -0.328125 -1.09375 -0.328125q-0.6875 0 -1.015625 0.234375q-0.3125 0.234375 -0.46875 0.84375l-0.953125 -0.125q0.125 -0.609375 0.421875 -0.984375q0.296875 -0.375 0.859375 -0.5625q0.5625 -0.203125 1.296875 -0.203125q0.734375 0 1.1875 0.171875q0.453125 0.171875 0.65625 0.4375q0.21875 0.25 0.3125 0.640625q0.046875 0.25 0.046875 0.90625l0 1.28125q0 1.34375 0.0625 1.703125q0.0625 0.359375 0.25 0.6875l-1.015625 0q-0.15625 -0.296875 -0.1875 -0.703125zm-0.09375 -2.15625q-0.515625 0.21875 -1.578125 0.359375q-0.59375 0.09375 -0.84375 0.203125q-0.234375 0.09375 -0.375 0.3125q-0.140625 0.203125 -0.140625 0.453125q0 0.390625 0.296875 0.65625q0.296875 0.25 0.859375 0.25q0.5625 0 0.984375 -0.25q0.4375 -0.25 0.65625 -0.671875q0.140625 -0.328125 0.140625 -0.96875l0 -0.34375zm1.9108734 1.15625l0.953125 -0.15625q0.078125 0.578125 0.4375 0.890625q0.375 0.296875 1.03125 0.296875q0.671875 0 0.984375 -0.265625q0.328125 -0.265625 0.328125 -0.640625q0 -0.328125 -0.28125 -0.515625q-0.203125 -0.125 -0.984375 -0.328125q-1.0625 -0.265625 -1.484375 -0.453125q-0.40625 -0.203125 -0.625 -0.546875q-0.203125 -0.34375 -0.203125 -0.765625q0 -0.390625 0.171875 -0.703125q0.171875 -0.328125 0.484375 -0.546875q0.21875 -0.171875 0.609375 -0.28125q0.390625 -0.109375 0.828125 -0.109375q0.671875 0 1.171875 0.1875q0.515625 0.1875 0.75 0.53125q0.25 0.328125 0.34375 0.875l-0.9375 0.125q-0.078125 -0.4375 -0.390625 -0.671875q-0.296875 -0.25 -0.859375 -0.25q-0.671875 0 -0.953125 0.21875q-0.28125 0.21875 -0.28125 0.515625q0 0.1875 0.109375 0.328125q0.125 0.15625 0.375 0.265625q0.140625 0.046875 0.859375 0.25q1.015625 0.265625 1.421875 0.4375q0.40625 0.171875 0.640625 0.515625q0.234375 0.328125 0.234375 0.828125q0 0.484375 -0.28125 0.90625q-0.28125 0.421875 -0.8125 0.65625q-0.53125 0.234375 -1.203125 0.234375q-1.109375 0 -1.703125 -0.453125q-0.578125 -0.46875 -0.734375 -1.375zm7.828125 0.84375l0.125 0.84375q-0.40625 0.09375 -0.71875 0.09375q-0.53125 0 -0.828125 -0.171875q-0.28125 -0.171875 -0.40625 -0.4375q-0.109375 -0.265625 -0.109375 -1.140625l0 -3.28125l-0.71875 0l0 -0.75l0.71875 0l0 -1.40625l0.953125 -0.59375l0 2.0l0.984375 0l0 0.75l-0.984375 0l0 3.34375q0 0.40625 0.046875 0.53125q0.0625 0.109375 0.171875 0.1875q0.125 0.0625 0.328125 0.0625q0.171875 0 0.4375 -0.03125zm0.8512726 -5.90625l0 -1.109375l0.96875 0l0 1.109375l-0.96875 0zm0 6.765625l0 -5.703125l0.96875 0l0 5.703125l-0.96875 0zm6.0862274 -2.09375l0.9375 0.125q-0.140625 0.984375 -0.796875 1.546875q-0.640625 0.546875 -1.5625 0.546875q-1.171875 0 -1.890625 -0.765625q-0.703125 -0.765625 -0.703125 -2.1875q0 -0.921875 0.296875 -1.609375q0.3125 -0.703125 0.9375 -1.046875q0.625 -0.34375 1.359375 -0.34375q0.921875 0 1.515625 0.46875q0.59375 0.46875 0.765625 1.328125l-0.953125 0.140625q-0.125 -0.5625 -0.46875 -0.84375q-0.34375 -0.296875 -0.828125 -0.296875q-0.71875 0 -1.1875 0.53125q-0.453125 0.515625 -0.453125 1.640625q0 1.15625 0.4375 1.671875q0.4375 0.515625 1.15625 0.515625q0.5625 0 0.9375 -0.34375q0.390625 -0.34375 0.5 -1.078125zm1.375 -0.4375l0.984375 -0.078125q0.0625 0.578125 0.3125 0.96875q0.265625 0.375 0.796875 0.609375q0.53125 0.234375 1.203125 0.234375q0.609375 0 1.0625 -0.171875q0.453125 -0.1875 0.671875 -0.484375q0.234375 -0.3125 0.234375 -0.6875q0 -0.375 -0.21875 -0.640625q-0.21875 -0.28125 -0.71875 -0.46875q-0.3125 -0.125 -1.40625 -0.375q-1.078125 -0.265625 -1.515625 -0.5q-0.5625 -0.296875 -0.84375 -0.734375q-0.265625 -0.4375 -0.265625 -0.984375q0 -0.59375 0.328125 -1.109375q0.34375 -0.515625 0.984375 -0.78125q0.65625 -0.28125 1.453125 -0.28125q0.875 0 1.546875 0.296875q0.671875 0.28125 1.03125 0.828125q0.359375 0.546875 0.390625 1.234375l-1.0 0.078125q-0.078125 -0.75 -0.546875 -1.125q-0.46875 -0.390625 -1.375 -0.390625q-0.9375 0 -1.375 0.359375q-0.4375 0.34375 -0.4375 0.828125q0 0.421875 0.3125 0.703125q0.296875 0.265625 1.5625 0.5625q1.28125 0.28125 1.75 0.5q0.6875 0.3125 1.015625 0.796875q0.328125 0.484375 0.328125 1.125q0 0.625 -0.359375 1.1875q-0.359375 0.546875 -1.046875 0.859375q-0.671875 0.3125 -1.515625 0.3125q-1.0625 0 -1.78125 -0.3125q-0.71875 -0.3125 -1.140625 -0.9375q-0.40625 -0.625 -0.421875 -1.421875zm11.2326355 0.6875l1.0 0.125q-0.234375 0.875 -0.875 1.359375q-0.640625 0.484375 -1.625 0.484375q-1.25 0 -1.984375 -0.765625q-0.734375 -0.765625 -0.734375 -2.15625q0 -1.453125 0.734375 -2.234375q0.75 -0.796875 1.921875 -0.796875q1.15625 0 1.875 0.78125q0.71875 0.765625 0.71875 2.1875q0 0.078125 0 0.25l-4.25 0q0.046875 0.9375 0.515625 1.4375q0.484375 0.5 1.203125 0.5q0.53125 0 0.90625 -0.265625q0.375 -0.28125 0.59375 -0.90625zm-3.171875 -1.5625l3.1875 0q-0.0625 -0.71875 -0.359375 -1.078125q-0.46875 -0.546875 -1.203125 -0.546875q-0.671875 0 -1.125 0.453125q-0.453125 0.4375 -0.5 1.171875zm8.926498 2.703125q-0.546875 0.453125 -1.046875 0.640625q-0.484375 0.1875 -1.0625 0.1875q-0.9375 0 -1.453125 -0.453125q-0.5 -0.46875 -0.5 -1.171875q0 -0.421875 0.1875 -0.765625q0.203125 -0.34375 0.5 -0.546875q0.3125 -0.21875 0.703125 -0.328125q0.28125 -0.078125 0.859375 -0.140625q1.171875 -0.140625 1.71875 -0.34375q0.015625 -0.1875 0.015625 -0.25q0 -0.59375 -0.28125 -0.828125q-0.359375 -0.328125 -1.09375 -0.328125q-0.6875 0 -1.015625 0.234375q-0.3125 0.234375 -0.46875 0.84375l-0.953125 -0.125q0.125 -0.609375 0.421875 -0.984375q0.296875 -0.375 0.859375 -0.5625q0.5625 -0.203125 1.296875 -0.203125q0.734375 0 1.1875 0.171875q0.453125 0.171875 0.65625 0.4375q0.21875 0.25 0.3125 0.640625q0.046875 0.25 0.046875 0.90625l0 1.28125q0 1.34375 0.0625 1.703125q0.0625 0.359375 0.25 0.6875l-1.015625 0q-0.15625 -0.296875 -0.1875 -0.703125zm-0.09375 -2.15625q-0.515625 0.21875 -1.578125 0.359375q-0.59375 0.09375 -0.84375 0.203125q-0.234375 0.09375 -0.375 0.3125q-0.140625 0.203125 -0.140625 0.453125q0 0.390625 0.296875 0.65625q0.296875 0.25 0.859375 0.25q0.5625 0 0.984375 -0.25q0.4375 -0.25 0.65625 -0.671875q0.140625 -0.328125 0.140625 -0.96875l0 -0.34375zm2.2858734 2.859375l0 -5.703125l0.859375 0l0 0.859375q0.34375 -0.609375 0.625 -0.796875q0.28125 -0.1875 0.609375 -0.1875q0.5 0 1.0 0.3125l-0.328125 0.890625q-0.359375 -0.203125 -0.71875 -0.203125q-0.3125 0 -0.5625 0.1875q-0.25 0.1875 -0.359375 0.53125q-0.15625 0.515625 -0.15625 1.125l0 2.984375l-0.96875 0zm7.2829895 -2.09375l0.9375 0.125q-0.140625 0.984375 -0.796875 1.546875q-0.640625 0.546875 -1.5625 0.546875q-1.171875 0 -1.890625 -0.765625q-0.703125 -0.765625 -0.703125 -2.1875q0 -0.921875 0.296875 -1.609375q0.3125 -0.703125 0.9375 -1.046875q0.625 -0.34375 1.359375 -0.34375q0.921875 0 1.515625 0.46875q0.59375 0.46875 0.765625 1.328125l-0.953125 0.140625q-0.125 -0.5625 -0.46875 -0.84375q-0.34375 -0.296875 -0.828125 -0.296875q-0.71875 0 -1.1875 0.53125q-0.453125 0.515625 -0.453125 1.640625q0 1.15625 0.4375 1.671875q0.4375 0.515625 1.15625 0.515625q0.5625 0 0.9375 -0.34375q0.390625 -0.34375 0.5 -1.078125zm1.59375 2.09375l0 -7.875l0.96875 0l0 2.828125q0.6875 -0.78125 1.71875 -0.78125q0.625 0 1.09375 0.25q0.46875 0.25 0.671875 0.6875q0.203125 0.4375 0.203125 1.28125l0 3.609375l-0.96875 0l0 -3.609375q0 -0.734375 -0.3125 -1.0625q-0.3125 -0.328125 -0.890625 -0.328125q-0.4375 0 -0.8125 0.21875q-0.375 0.21875 -0.546875 0.609375q-0.15625 0.375 -0.15625 1.046875l0 3.125l-0.96875 0z" fill-rule="nonzero"></path><path fill="#d9ead3" d="m224.63518 102.74278l13.165344 13.165352l-6.582672 0l0 57.291344l6.582672 0l-13.165344 13.165344l-13.1653595 -13.165344l6.582672 0l0 -57.291344l-6.582672 0z" fill-rule="nonzero"></path><path stroke="#000000" stroke-width="1.0" stroke-linejoin="round" stroke-linecap="butt" d="m224.63518 102.74278l13.165344 13.165352l-6.582672 0l0 57.291344l6.582672 0l-13.165344 13.165344l-13.1653595 -13.165344l6.582672 0l0 -57.291344l-6.582672 0z" fill-rule="nonzero"></path><path fill="#000000" d="m221.95517 121.30984l0 -0.703125l4.484375 0q-0.25 -0.25 -0.5 -0.671875q-0.234375 -0.40625 -0.34375 -0.734375l0.671875 0q0.28125 0.59375 0.671875 1.03125q0.390625 0.4375 0.765625 0.625l0 0.453125l-5.75 0zm0 1.9960938l5.734375 0l0 0.703125l-3.265625 0l1.6875 1.671875l0 0.90625l-1.546875 -1.59375l-2.609375 1.75l0 -0.859375l2.125 -1.375l-0.484375 -0.5l-1.640625 0l0 -0.703125zm0.625 7.7538986l-0.609375 0.109375q-0.078125 -0.296875 -0.078125 -0.53125q0 -0.390625 0.125 -0.609375q0.125 -0.203125 0.3125 -0.296875q0.203125 -0.078125 0.84375 -0.078125l2.390625 0l0 -0.515625l0.546875 0l0 0.515625l1.015625 0l0.421875 0.703125l-1.4375 0l0 0.703125l-0.546875 0l0 -0.703125l-2.4375 0q-0.296875 0 -0.390625 0.03125q-0.078125 0.046875 -0.125 0.125q-0.046875 0.078125 -0.046875 0.234375q0 0.125 0.015625 0.3125zm1.453125 0.42578125q1.15625 0 1.703125 0.640625q0.46875 0.53125 0.46875 1.3125q0 0.84375 -0.5625 1.390625q-0.5625 0.546875 -1.546875 0.546875q-0.8125 0 -1.265625 -0.25q-0.453125 -0.234375 -0.71875 -0.703125q-0.25 -0.453125 -0.25 -0.984375q0 -0.875 0.5625 -1.421875q0.5625 -0.53125 1.609375 -0.53125zm0 0.71875q-0.796875 0 -1.203125 0.34375q-0.390625 0.359375 -0.390625 0.890625q0 0.515625 0.390625 0.859375q0.40625 0.359375 1.21875 0.359375q0.78125 0 1.171875 -0.359375q0.390625 -0.34375 0.390625 -0.859375q0 -0.53125 -0.390625 -0.890625q-0.390625 -0.34375 -1.1875 -0.34375zm-3.671875 3.9960938l5.75 0l0 0.640625l-0.546875 0q0.3125 0.21875 0.46875 0.5q0.171875 0.296875 0.171875 0.703125q0 0.53125 -0.28125 0.9375q-0.265625 0.40625 -0.765625 0.609375q-0.5 0.203125 -1.09375 0.203125q-0.640625 0 -1.15625 -0.234375q-0.5 -0.21875 -0.78125 -0.65625q-0.265625 -0.4375 -0.265625 -0.90625q0 -0.359375 0.140625 -0.640625q0.15625 -0.28125 0.390625 -0.453125l-2.03125 0l0 -0.703125zm3.640625 0.640625q-0.796875 0 -1.1875 0.3125q-0.375 0.328125 -0.375 0.796875q0 0.46875 0.390625 0.796875q0.40625 0.328125 1.234375 0.328125q0.796875 0 1.1875 -0.328125q0.390625 -0.3125 0.390625 -0.765625q0 -0.453125 -0.421875 -0.796875q-0.40625 -0.34375 -1.21875 -0.34375zm-2.046875 6.015625l4.15625 0l0 0.640625l-0.640625 0q0.453125 0.234375 0.59375 0.4375q0.140625 0.21875 0.140625 0.453125q0 0.359375 -0.234375 0.734375l-0.65625 -0.25q0.15625 -0.25 0.15625 -0.515625q0 -0.234375 -0.140625 -0.421875q-0.140625 -0.171875 -0.375 -0.25q-0.375 -0.125 -0.828125 -0.125l-2.171875 0l0 -0.703125zm1.34375 5.5234375l-0.09375 0.71875q-0.640625 -0.171875 -1.0 -0.640625q-0.34375 -0.453125 -0.34375 -1.1875q0 -0.90625 0.5625 -1.4375q0.5625 -0.53125 1.578125 -0.53125q1.046875 0 1.625 0.53125q0.578125 0.546875 0.578125 1.40625q0 0.828125 -0.578125 1.359375q-0.5625 0.53125 -1.59375 0.53125q-0.0625 0 -0.1875 -0.015625l0 -3.09375q-0.671875 0.046875 -1.046875 0.390625q-0.359375 0.34375 -0.359375 0.875q0 0.375 0.203125 0.640625q0.203125 0.28125 0.65625 0.453125zm1.125 -2.3125l0 2.3125q0.53125 -0.046875 0.796875 -0.265625q0.40625 -0.328125 0.40625 -0.875q0 -0.484375 -0.328125 -0.8125q-0.328125 -0.328125 -0.875 -0.359375zm-1.234375 3.6367188l0.109375 0.6875q-0.40625 0.0625 -0.640625 0.328125q-0.21875 0.265625 -0.21875 0.75q0 0.484375 0.1875 0.71875q0.203125 0.234375 0.46875 0.234375q0.25 0 0.375 -0.203125q0.09375 -0.140625 0.25 -0.71875q0.1875 -0.78125 0.328125 -1.078125q0.140625 -0.296875 0.390625 -0.453125q0.265625 -0.15625 0.5625 -0.15625q0.28125 0 0.515625 0.125q0.234375 0.140625 0.390625 0.359375q0.125 0.15625 0.203125 0.4375q0.09375 0.28125 0.09375 0.609375q0 0.484375 -0.140625 0.859375q-0.140625 0.375 -0.390625 0.546875q-0.234375 0.171875 -0.640625 0.234375l-0.09375 -0.6875q0.328125 -0.046875 0.5 -0.265625q0.1875 -0.21875 0.1875 -0.640625q0 -0.484375 -0.171875 -0.6875q-0.15625 -0.203125 -0.375 -0.203125q-0.125 0 -0.234375 0.078125q-0.125 0.09375 -0.1875 0.28125q-0.046875 0.09375 -0.1875 0.609375q-0.203125 0.75 -0.328125 1.046875q-0.125 0.296875 -0.375 0.453125q-0.234375 0.171875 -0.59375 0.171875q-0.34375 0 -0.65625 -0.203125q-0.3125 -0.203125 -0.484375 -0.59375q-0.171875 -0.375 -0.171875 -0.875q0 -0.796875 0.328125 -1.234375q0.34375 -0.421875 1.0 -0.53125zm-1.234375 7.0l0.609375 0q-0.703125 -0.484375 -0.703125 -1.3125q0 -0.375 0.140625 -0.703125q0.140625 -0.3125 0.34375 -0.46875q0.21875 -0.140625 0.53125 -0.203125q0.203125 -0.046875 0.65625 -0.046875l2.578125 0l0 0.703125l-2.3125 0q-0.546875 0 -0.734375 0.046875q-0.28125 0.0625 -0.4375 0.265625q-0.15625 0.21875 -0.15625 0.546875q0 0.3125 0.15625 0.578125q0.171875 0.28125 0.4375 0.390625q0.28125 0.125 0.8125 0.125l2.234375 0l0 0.703125l-4.15625 0l0 -0.625zm0 1.7148438l5.734375 0l0 0.703125l-5.734375 0l0 -0.703125zm0.625 3.3242188l-0.609375 0.109375q-0.078125 -0.296875 -0.078125 -0.53125q0 -0.390625 0.125 -0.609375q0.125 -0.203125 0.3125 -0.296875q0.203125 -0.078125 0.84375 -0.078125l2.390625 0l0 -0.515625l0.546875 0l0 0.515625l1.015625 0l0.421875 0.703125l-1.4375 0l0 0.703125l-0.546875 0l0 -0.703125l-2.4375 0q-0.296875 0 -0.390625 0.03125q-0.078125 0.046875 -0.125 0.125q-0.046875 0.078125 -0.046875 0.234375q0 0.125 0.015625 0.3125zm0.609375 0.41015625l0.109375 0.6875q-0.40625 0.0625 -0.640625 0.328125q-0.21875 0.265625 -0.21875 0.75q0 0.484375 0.1875 0.71875q0.203125 0.234375 0.46875 0.234375q0.25 0 0.375 -0.203125q0.09375 -0.140625 0.25 -0.71875q0.1875 -0.78125 0.328125 -1.078125q0.140625 -0.296875 0.390625 -0.453125q0.265625 -0.15625 0.5625 -0.15625q0.28125 0 0.515625 0.125q0.234375 0.140625 0.390625 0.359375q0.125 0.15625 0.203125 0.4375q0.09375 0.28125 0.09375 0.609375q0 0.484375 -0.140625 0.859375q-0.140625 0.375 -0.390625 0.546875q-0.234375 0.171875 -0.640625 0.234375l-0.09375 -0.6875q0.328125 -0.046875 0.5 -0.265625q0.1875 -0.21875 0.1875 -0.640625q0 -0.484375 -0.171875 -0.6875q-0.15625 -0.203125 -0.375 -0.203125q-0.125 0 -0.234375 0.078125q-0.125 0.09375 -0.1875 0.28125q-0.046875 0.09375 -0.1875 0.609375q-0.203125 0.75 -0.328125 1.046875q-0.125 0.296875 -0.375 0.453125q-0.234375 0.171875 -0.59375 0.171875q-0.34375 0 -0.65625 -0.203125q-0.3125 -0.203125 -0.484375 -0.59375q-0.171875 -0.375 -0.171875 -0.875q0 -0.796875 0.328125 -1.234375q0.34375 -0.421875 1.0 -0.53125z" fill-rule="nonzero"></path><path fill="#d9ead3" d="m313.437 48.90026l13.165344 -13.165352l0 6.582676l57.29135 0l0 -6.582676l13.165344 13.165352l-13.165344 13.165356l0 -6.582676l-57.29135 0l0 6.582676z" fill-rule="nonzero"></path><path stroke="#000000" stroke-width="1.0" stroke-linejoin="round" stroke-linecap="butt" d="m313.437 48.90026l13.165344 -13.165352l0 6.582676l57.29135 0l0 -6.582676l13.165344 13.165352l-13.165344 13.165356l0 -6.582676l-57.29135 0l0 6.582676z" fill-rule="nonzero"></path><path fill="#000000" d="m333.7228 49.564636l0.765625 0.203125q-0.25 0.921875 -0.875 1.421875q-0.609375 0.484375 -1.5 0.484375q-0.921875 0 -1.515625 -0.375q-0.578125 -0.375 -0.875 -1.09375q-0.296875 -0.71875 -0.296875 -1.53125q0 -0.890625 0.328125 -1.5625q0.34375 -0.671875 0.96875 -1.015625q0.640625 -0.34375 1.40625 -0.34375q0.859375 0 1.4375 0.4375q0.59375 0.4375 0.8125 1.234375l-0.734375 0.171875q-0.203125 -0.625 -0.59375 -0.90625q-0.375 -0.28125 -0.9375 -0.28125q-0.671875 0 -1.109375 0.3125q-0.4375 0.3125 -0.625 0.84375q-0.171875 0.53125 -0.171875 1.109375q0 0.71875 0.203125 1.265625q0.21875 0.546875 0.65625 0.828125q0.453125 0.265625 0.984375 0.265625q0.640625 0 1.078125 -0.359375q0.4375 -0.375 0.59375 -1.109375zm1.6992188 2.015625l0 -5.734375l2.15625 0q0.5625 0 0.875 0.0625q0.421875 0.0625 0.703125 0.265625q0.28125 0.203125 0.453125 0.5625q0.171875 0.34375 0.171875 0.765625q0 0.734375 -0.46875 1.25q-0.453125 0.5 -1.671875 0.5l-1.46875 0l0 2.328125l-0.75 0zm0.75 -3.0l1.484375 0q0.734375 0 1.03125 -0.265625q0.3125 -0.28125 0.3125 -0.78125q0 -0.359375 -0.1875 -0.609375q-0.171875 -0.265625 -0.46875 -0.34375q-0.1875 -0.046875 -0.703125 -0.046875l-1.46875 0l0 2.046875zm4.5859375 3.0l0 -5.734375l2.15625 0q0.5625 0 0.875 0.0625q0.421875 0.0625 0.703125 0.265625q0.28125 0.203125 0.453125 0.5625q0.171875 0.34375 0.171875 0.765625q0 0.734375 -0.46875 1.25q-0.453125 0.5 -1.671875 0.5l-1.46875 0l0 2.328125l-0.75 0zm0.75 -3.0l1.484375 0q0.734375 0 1.03125 -0.265625q0.3125 -0.28125 0.3125 -0.78125q0 -0.359375 -0.1875 -0.609375q-0.171875 -0.265625 -0.46875 -0.34375q-0.1875 -0.046875 -0.703125 -0.046875l-1.46875 0l0 2.046875zm4.5859375 3.0l0 -5.734375l2.546875 0q0.765625 0 1.15625 0.15625q0.40625 0.15625 0.640625 0.546875q0.234375 0.390625 0.234375 0.859375q0 0.609375 -0.390625 1.03125q-0.390625 0.421875 -1.21875 0.53125q0.296875 0.140625 0.453125 0.28125q0.34375 0.3125 0.640625 0.765625l0.984375 1.5625l-0.953125 0l-0.75 -1.1875q-0.328125 -0.515625 -0.546875 -0.78125q-0.21875 -0.28125 -0.390625 -0.390625q-0.171875 -0.109375 -0.34375 -0.15625q-0.125 -0.03125 -0.421875 -0.03125l-0.875 0l0 2.546875l-0.765625 0zm0.765625 -3.203125l1.625 0q0.515625 0 0.8125 -0.109375q0.296875 -0.109375 0.4375 -0.34375q0.15625 -0.234375 0.15625 -0.515625q0 -0.40625 -0.296875 -0.65625q-0.28125 -0.265625 -0.921875 -0.265625l-1.8125 0l0 1.890625zm8.859375 3.203125l-2.21875 -5.734375l0.828125 0l1.484375 4.171875q0.1875 0.5 0.296875 0.9375q0.140625 -0.46875 0.3125 -0.9375l1.546875 -4.171875l0.78125 0l-2.25 5.734375l-0.78125 0zm6.4609375 -1.34375l0.71875 0.09375q-0.171875 0.640625 -0.640625 1.0q-0.453125 0.34375 -1.1875 0.34375q-0.90625 0 -1.4375 -0.5625q-0.53125 -0.5625 -0.53125 -1.578125q0 -1.046875 0.53125 -1.625q0.546875 -0.578125 1.40625 -0.578125q0.828125 0 1.359375 0.578125q0.53125 0.5625 0.53125 1.59375q0 0.0625 -0.015625 0.1875l-3.09375 0q0.046875 0.671875 0.390625 1.046875q0.34375 0.359375 0.875 0.359375q0.375 0 0.640625 -0.203125q0.28125 -0.203125 0.453125 -0.65625zm-2.3125 -1.125l2.3125 0q-0.046875 -0.53125 -0.265625 -0.796875q-0.328125 -0.40625 -0.875 -0.40625q-0.484375 0 -0.8125 0.328125q-0.328125 0.328125 -0.359375 0.875zm6.6210938 0.953125l0.6875 0.078125q-0.109375 0.71875 -0.578125 1.125q-0.46875 0.40625 -1.140625 0.40625q-0.859375 0 -1.375 -0.546875q-0.515625 -0.5625 -0.515625 -1.609375q0 -0.671875 0.21875 -1.171875q0.234375 -0.5 0.6875 -0.75q0.453125 -0.265625 0.984375 -0.265625q0.671875 0 1.09375 0.34375q0.4375 0.34375 0.5625 0.96875l-0.6875 0.109375q-0.09375 -0.421875 -0.34375 -0.625q-0.25 -0.21875 -0.59375 -0.21875q-0.53125 0 -0.875 0.390625q-0.328125 0.375 -0.328125 1.203125q0 0.828125 0.3125 1.21875q0.328125 0.375 0.84375 0.375q0.421875 0 0.6875 -0.25q0.28125 -0.265625 0.359375 -0.78125zm2.828125 0.890625l0.109375 0.609375q-0.296875 0.078125 -0.53125 0.078125q-0.390625 0 -0.609375 -0.125q-0.203125 -0.125 -0.296875 -0.3125q-0.078125 -0.203125 -0.078125 -0.84375l0 -2.390625l-0.515625 0l0 -0.546875l0.515625 0l0 -1.015625l0.703125 -0.421875l0 1.4375l0.703125 0l0 0.546875l-0.703125 0l0 2.4375q0 0.296875 0.03125 0.390625q0.046875 0.078125 0.125 0.125q0.078125 0.046875 0.234375 0.046875q0.125 0 0.3125 -0.015625zm0.42578125 -1.453125q0 -1.15625 0.640625 -1.703125q0.53125 -0.46875 1.3125 -0.46875q0.84375 0 1.390625 0.5625q0.546875 0.5625 0.546875 1.546875q0 0.8125 -0.25 1.265625q-0.234375 0.453125 -0.703125 0.71875q-0.453125 0.25 -0.984375 0.25q-0.875 0 -1.421875 -0.5625q-0.53125 -0.5625 -0.53125 -1.609375zm0.71875 0q0 0.796875 0.34375 1.203125q0.359375 0.390625 0.890625 0.390625q0.515625 0 0.859375 -0.390625q0.359375 -0.40625 0.359375 -1.21875q0 -0.78125 -0.359375 -1.171875q-0.34375 -0.390625 -0.859375 -0.390625q-0.53125 0 -0.890625 0.390625q-0.34375 0.390625 -0.34375 1.1875zm3.9804688 2.078125l0 -4.15625l0.640625 0l0 0.640625q0.234375 -0.453125 0.4375 -0.59375q0.21875 -0.140625 0.453125 -0.140625q0.359375 0 0.734375 0.234375l-0.25 0.65625q-0.25 -0.15625 -0.515625 -0.15625q-0.234375 0 -0.421875 0.140625q-0.171875 0.140625 -0.25 0.375q-0.125 0.375 -0.125 0.828125l0 2.171875l-0.703125 0z" fill-rule="nonzero"></path><path fill="#f3f3f3" d="m378.18896 128.521l0 0c0 4.116043 13.346863 7.452759 29.811035 7.452759c16.464172 0 29.811035 -3.3367157 29.811035 -7.452759l0 52.716537c0 4.116043 -13.346863 7.452759 -29.811035 7.452759c-16.464172 0 -29.811035 -3.3367157 -29.811035 -7.452759z" fill-rule="nonzero"></path><path fill="#f7f7f7" d="m378.18896 128.521l0 0c0 -4.116043 13.346863 -7.452751 29.811035 -7.452751c16.464172 0 29.811035 3.336708 29.811035 7.452751l0 0c0 4.116043 -13.346863 7.452759 -29.811035 7.452759c-16.464172 0 -29.811035 -3.3367157 -29.811035 -7.452759z" fill-rule="nonzero"></path><path fill="#000000" fill-opacity="0.0" d="m437.81104 128.521l0 0c0 4.116043 -13.346863 7.452759 -29.811035 7.452759c-16.464172 0 -29.811035 -3.3367157 -29.811035 -7.452759l0 0c0 -4.116043 13.346863 -7.452751 29.811035 -7.452751c16.464172 0 29.811035 3.336708 29.811035 7.452751l0 52.716537c0 4.116043 -13.346863 7.452759 -29.811035 7.452759c-16.464172 0 -29.811035 -3.3367157 -29.811035 -7.452759l0 -52.716537" fill-rule="nonzero"></path><path stroke="#000000" stroke-width="1.0" stroke-linejoin="round" stroke-linecap="butt" d="m437.81104 128.521l0 0c0 4.116043 -13.346863 7.452759 -29.811035 7.452759c-16.464172 0 -29.811035 -3.3367157 -29.811035 -7.452759l0 0c0 -4.116043 13.346863 -7.452751 29.811035 -7.452751c16.464172 0 29.811035 3.336708 29.811035 7.452751l0 52.716537c0 4.116043 -13.346863 7.452759 -29.811035 7.452759c-16.464172 0 -29.811035 -3.3367157 -29.811035 -7.452759l0 -52.716537" fill-rule="nonzero"></path><path fill="#000000" d="m388.67334 155.84564l0 -7.875l1.578125 0l1.859375 5.578125q0.25 0.78125 0.375 1.15625q0.140625 -0.421875 0.421875 -1.25l1.875 -5.484375l1.40625 0l0 7.875l-1.0 0l0 -6.59375l-2.296875 6.59375l-0.9375 0l-2.265625 -6.703125l0 6.703125l-1.015625 0zm8.4236145 -2.859375q0 -1.578125 0.890625 -2.34375q0.734375 -0.625 1.796875 -0.625q1.171875 0 1.90625 0.765625q0.75 0.765625 0.75 2.125q0 1.109375 -0.328125 1.75q-0.328125 0.625 -0.96875 0.96875q-0.625 0.34375 -1.359375 0.34375q-1.203125 0 -1.953125 -0.765625q-0.734375 -0.765625 -0.734375 -2.21875zm1.0 0q0 1.109375 0.46875 1.65625q0.484375 0.53125 1.21875 0.53125q0.71875 0 1.1875 -0.546875q0.484375 -0.546875 0.484375 -1.671875q0 -1.046875 -0.484375 -1.59375q-0.484375 -0.546875 -1.1875 -0.546875q-0.734375 0 -1.21875 0.546875q-0.46875 0.53125 -0.46875 1.625zm5.285858 2.859375l0 -5.703125l0.875 0l0 0.8125q0.625 -0.9375 1.8125 -0.9375q0.515625 0 0.953125 0.1875q0.4375 0.171875 0.640625 0.484375q0.21875 0.296875 0.3125 0.703125q0.046875 0.28125 0.046875 0.953125l0 3.5l-0.96875 0l0 -3.46875q0 -0.59375 -0.109375 -0.875q-0.109375 -0.296875 -0.40625 -0.46875q-0.28125 -0.1875 -0.671875 -0.1875q-0.609375 0 -1.0625 0.390625q-0.453125 0.390625 -0.453125 1.5l0 3.109375l-0.96875 0zm5.7546387 0.46875l0.9375 0.140625q0.0625 0.4375 0.328125 0.640625q0.359375 0.265625 0.984375 0.265625q0.671875 0 1.03125 -0.265625q0.375 -0.265625 0.5 -0.75q0.078125 -0.296875 0.078125 -1.25q-0.640625 0.75 -1.59375 0.75q-1.171875 0 -1.8125 -0.84375q-0.640625 -0.859375 -0.640625 -2.046875q0 -0.8125 0.296875 -1.5q0.296875 -0.6875 0.84375 -1.0625q0.5625 -0.375 1.328125 -0.375q1.0 0 1.65625 0.8125l0 -0.6875l0.890625 0l0 4.921875q0 1.34375 -0.265625 1.890625q-0.265625 0.5625 -0.859375 0.875q-0.59375 0.328125 -1.453125 0.328125q-1.015625 0 -1.640625 -0.46875q-0.625 -0.453125 -0.609375 -1.375zm0.796875 -3.421875q0 1.125 0.4375 1.640625q0.453125 0.515625 1.125 0.515625q0.671875 0 1.125 -0.515625q0.453125 -0.515625 0.453125 -1.609375q0 -1.046875 -0.46875 -1.578125q-0.46875 -0.53125 -1.125 -0.53125q-0.640625 0 -1.09375 0.53125q-0.453125 0.515625 -0.453125 1.546875zm4.942108 0.09375q0 -1.578125 0.890625 -2.34375q0.734375 -0.625 1.796875 -0.625q1.171875 0 1.90625 0.765625q0.75 0.765625 0.75 2.125q0 1.109375 -0.328125 1.75q-0.328125 0.625 -0.96875 0.96875q-0.625 0.34375 -1.359375 0.34375q-1.203125 0 -1.953125 -0.765625q-0.734375 -0.765625 -0.734375 -2.21875zm1.0 0q0 1.109375 0.46875 1.65625q0.484375 0.53125 1.21875 0.53125q0.71875 0 1.1875 -0.546875q0.484375 -0.546875 0.484375 -1.671875q0 -1.046875 -0.484375 -1.59375q-0.484375 -0.546875 -1.1875 -0.546875q-0.734375 0 -1.21875 0.546875q-0.46875 0.53125 -0.46875 1.625zm5.4108887 2.859375l0 -7.875l2.71875 0q0.921875 0 1.40625 0.109375q0.671875 0.15625 1.15625 0.5625q0.609375 0.53125 0.921875 1.359375q0.3125 0.8125 0.3125 1.859375q0 0.90625 -0.21875 1.59375q-0.203125 0.6875 -0.53125 1.140625q-0.328125 0.453125 -0.71875 0.71875q-0.390625 0.265625 -0.9375 0.40625q-0.546875 0.125 -1.265625 0.125l-2.84375 0zm1.046875 -0.921875l1.6875 0q0.765625 0 1.203125 -0.140625q0.453125 -0.15625 0.71875 -0.421875q0.375 -0.375 0.578125 -1.0q0.203125 -0.625 0.203125 -1.515625q0 -1.234375 -0.40625 -1.890625q-0.40625 -0.671875 -0.984375 -0.890625q-0.421875 -0.15625 -1.34375 -0.15625l-1.65625 0l0 6.015625z" fill-rule="nonzero"></path><path fill="#000000" d="m405.2587 168.84564l0 -7.875l2.953125 0q0.890625 0 1.4375 0.25q0.546875 0.234375 0.859375 0.734375q0.3125 0.484375 0.3125 1.03125q0 0.5 -0.28125 0.953125q-0.265625 0.4375 -0.828125 0.71875q0.71875 0.203125 1.09375 0.71875q0.390625 0.5 0.390625 1.1875q0 0.546875 -0.234375 1.03125q-0.234375 0.46875 -0.578125 0.734375q-0.34375 0.25 -0.859375 0.390625q-0.515625 0.125 -1.265625 0.125l-3.0 0zm1.03125 -4.5625l1.703125 0q0.703125 0 1.0 -0.09375q0.390625 -0.125 0.59375 -0.390625q0.203125 -0.28125 0.203125 -0.6875q0 -0.390625 -0.1875 -0.6875q-0.1875 -0.296875 -0.546875 -0.40625q-0.34375 -0.109375 -1.1875 -0.109375l-1.578125 0l0 2.375zm0 3.640625l1.96875 0q0.5 0 0.703125 -0.046875q0.359375 -0.0625 0.59375 -0.203125q0.25 -0.15625 0.40625 -0.4375q0.15625 -0.296875 0.15625 -0.671875q0 -0.4375 -0.234375 -0.765625q-0.21875 -0.328125 -0.625 -0.453125q-0.390625 -0.140625 -1.140625 -0.140625l-1.828125 0l0 2.71875z" fill-rule="nonzero"></path><path fill="#ffd966" d="m283.7139 59.90815l75.63815 43.652885l5.5118103 -9.551186l8.078369 30.126648l-30.12561 8.078087l5.5118103 -9.551186l-75.63818 -43.652885z" fill-rule="nonzero"></path><path stroke="#000000" stroke-width="1.0" stroke-linejoin="round" stroke-linecap="butt" d="m283.7139 59.90815l75.63815 43.652885l5.5118103 -9.551186l8.078369 30.126648l-30.12561 8.078087l5.5118103 -9.551186l-75.63818 -43.652885z" fill-rule="nonzero"></path><path fill="#000000" d="m289.2554 72.43824l-0.20986938 0.5824661q-0.2961731 -0.08072662 -0.49917603 -0.1978836q-0.33831787 -0.19525146 -0.4653015 -0.41286469q-0.11343384 -0.20979309 -0.10092163 -0.41905975q0.03387451 -0.21498108 0.35406494 -0.76984406l1.1948853 -2.0705795l-0.44659424 -0.2577362l0.27334595 -0.47366333l0.44659424 0.2577362l0.5076294 -0.87966156l0.81985474 -0.013931274l-0.71850586 1.2450562l0.6089783 0.3514557l-0.27334595 0.47366333l-0.6089783 -0.3514557l-1.2183228 2.1111755q-0.14837646 0.25713348 -0.16818237 0.3539505q0.0015563965 0.0911026 0.045806885 0.17075348q0.04421997 0.07965088 0.17956543 0.15775299q0.10824585 0.06247711 0.2784729 0.14266968zm0.27288818 0.8791199l2.0773926 -3.5998383l0.5548706 0.32022095l-0.32022095 0.554863q0.4295044 -0.2753067 0.6757202 -0.29557037q0.2597351 -0.012458801 0.46273804 0.10469055q0.31124878 0.17964172 0.5188904 0.5700836l-0.54452515 0.44342804q-0.13842773 -0.26029205 -0.36849976 -0.3930664q-0.20300293 -0.11715698 -0.43566895 -0.08908081q-0.21914673 0.035888672 -0.40396118 0.19983673q-0.29571533 0.26231384 -0.5221863 0.6547775l-1.0855713 1.8811188l-0.6089783 -0.35146332zm4.7809753 -2.9235077l0.40612793 -0.7037277l0.6089783 0.35146332l-0.4060974 0.7037277l-0.6090088 -0.35146332zm-2.4600525 4.2629623l2.0773926 -3.5998306l0.6089783 0.3514557l-2.0773926 3.5998383l-0.6089783 -0.35146332zm0.74276733 2.2688065l2.873993 -4.9802246l0.5548401 0.32022095l-0.27334595 0.47366333q0.3456726 -0.16132355 0.6673584 -0.15607452q0.3430481 -4.6539307E-4 0.69488525 0.20259857q0.46011353 0.2655487 0.67141724 0.7122116q0.2190857 0.433136 0.14511108 0.96772766q-0.07400513 0.5345993 -0.37075806 1.0488586q-0.32022095 0.554863 -0.7809143 0.88430786q-0.4393921 0.3237152 -0.9588928 0.34862518q-0.51168823 0.011383057 -0.9176636 -0.22292328q-0.3112793 -0.1796341 -0.4845581 -0.44202423q-0.16549683 -0.27591705 -0.1972351 -0.56482697l-1.0152588 1.7593231l-0.6089783 -0.35146332zm2.3745117 -2.833023q-0.3982849 0.6902008 -0.32287598 1.1847305q0.09677124 0.4888153 0.5027466 0.72312164q0.40600586 0.23430634 0.885437 0.05998993q0.48724365 -0.18784332 0.90115356 -0.9051056q0.3982849 -0.6901932 0.3093567 -1.192543q-0.075408936 -0.49453735 -0.467865 -0.7210312q-0.39245605 -0.22649384 -0.901062 -0.032928467q-0.50076294 0.18003845 -0.90689087 0.8837662zm2.2620544 3.6687927l2.8661804 -4.9666977l0.6089783 0.35146332l-2.8661804 4.96669l-0.6089783 -0.3514557zm4.6875305 1.1538315l0.5756836 0.44046783q-0.4690857 0.46894836 -1.0546875 0.54590607q-0.56427 0.07123566 -1.2003174 -0.29584503q-0.7849121 -0.4529953 -0.9638977 -1.2057419q-0.17895508 -0.75273895 0.32867432 -1.6324005q0.5232544 -0.906723 1.2723389 -1.1419067q0.7626343 -0.22737122 1.5069275 0.20219421q0.71725464 0.41394043 0.8883972 1.1802216q0.1789856 0.75273895 -0.3364563 1.645935q-0.03125 0.054130554 -0.10726929 0.15458679l-2.6795044 -1.5464249q-0.29522705 0.6053543 -0.18493652 1.1019821q0.11810303 0.48308563 0.57821655 0.74863434q0.32479858 0.1874466 0.6563721 0.14428711q0.3451233 -0.035346985 0.720459 -0.34189606zm-1.4405518 -2.13031l2.0028687 1.1559143q0.22494507 -0.48355865 0.16824341 -0.8229675q-0.08114624 -0.51587677 -0.5548096 -0.789238q-0.41949463 -0.24211884 -0.8677063 -0.12193298q-0.44818115 0.12018585 -0.7485962 0.5782242zm5.817383 5.143379l0.78878784 -1.3668594l-1.3397827 -0.7732086l0.32803345 -0.5683975l1.3397522 0.77321625l0.78097534 -1.3533249l0.5819092 0.33583832l-0.78097534 1.3533249l1.353302 0.7810211l-0.32800293 0.5683975l-1.353302 -0.7810211l-0.78878784 1.3668518l-0.5819092 -0.33583832zm6.3631897 4.7367706l-0.6089783 -0.35146332l2.2414246 -3.8840332q-0.3414917 0.09156799 -0.83184814 0.097221375q-0.46899414 -6.1035156E-5 -0.8078613 -0.06934357l0.33581543 -0.58193207q0.6548462 0.05319214 1.2290039 -0.06645203q0.5741577 -0.119644165 0.92401123 -0.35071564l0.39245605 0.22649384l-2.8740234 4.9802246zm1.7288513 0.99775696l2.8661804 -4.96669l0.6089783 0.35146332l-1.6322327 2.8284378l2.2914734 -0.62589264l0.7849121 0.4529953l-2.153534 0.5431442l0.2114563 3.1347961l-0.7442932 -0.42956543l-0.12878418 -2.5278168l-0.6751404 0.16960144l-0.82003784 1.42099l-0.6089783 -0.35146332zm5.3759766 3.102623l2.0773926 -3.5998383l0.5548401 0.32022095l-0.32019043 0.554863q0.42947388 -0.27531433 0.6756897 -0.295578q0.2597351 -0.012458801 0.46273804 0.10469818q0.31124878 0.1796341 0.5188904 0.570076l-0.54452515 0.44343567q-0.13842773 -0.26029968 -0.36849976 -0.39307404q-0.20297241 -0.11714935 -0.43566895 -0.08907318q-0.21914673 0.035881042 -0.40396118 0.1998291q-0.2956848 0.26231384 -0.5221863 0.6547775l-1.0855408 1.8811188l-0.6089783 -0.3514557zm5.455536 1.5970612l0.5756531 0.44046783q-0.4690857 0.46894836 -1.0546875 0.54590607q-0.56427 0.07123566 -1.2003174 -0.29584503q-0.7849121 -0.4529953 -0.9638672 -1.2057419q-0.1789856 -0.75273895 0.3286438 -1.6324005q0.5232544 -0.906723 1.2723389 -1.1419067q0.7626343 -0.22737122 1.5069275 0.20219421q0.71725464 0.41394043 0.88842773 1.1802216q0.17895508 0.75273895 -0.33648682 1.645935q-0.03125 0.054130554 -0.10723877 0.15458679l-2.679535 -1.5464249q-0.29522705 0.6053543 -0.18493652 1.1019821q0.11810303 0.48308563 0.57821655 0.74863434q0.32479858 0.1874466 0.6563721 0.14428711q0.3451233 -0.035346985 0.7204895 -0.34189606zm-1.4405823 -2.13031l2.0028687 1.1559143q0.22494507 -0.48355865 0.16824341 -0.8229675q-0.08114624 -0.51587677 -0.55477905 -0.789238q-0.41952515 -0.2421112 -0.8677368 -0.12193298q-0.44818115 0.12018585 -0.7485962 0.5782242zm2.5328064 2.886963l0.6501465 0.24891663q-0.14892578 0.38310242 -0.036010742 0.7188721q0.12069702 0.32224274 0.54022217 0.5643616q0.41952515 0.24211884 0.71624756 0.1968689q0.3045044 -0.058776855 0.43728638 -0.28884125q0.124938965 -0.21652985 0.011505127 -0.42633057q-0.07495117 -0.15148926 -0.4975586 -0.57580566q-0.5829468 -0.55290985 -0.7697754 -0.8230972q-0.18682861 -0.270195 -0.19720459 -0.5648346q-0.0025634766 -0.3081665 0.14581299 -0.56529236q0.14059448 -0.24359894 0.3659973 -0.38411713q0.23895264 -0.13270569 0.50650024 -0.1586914q0.19781494 -0.030166626 0.48043823 0.042747498q0.2904663 0.059387207 0.574646 0.22340393q0.41952515 0.24211884 0.67404175 0.5513611q0.25448608 0.30924225 0.27841187 0.6116867q0.031707764 0.28891754 -0.11721802 0.67201996l-0.64230347 -0.26245117q0.123413086 -0.30763245 0.019836426 -0.5658417q-0.09573364 -0.27173615 -0.4611206 -0.4826126q-0.41952515 -0.24211884 -0.68136597 -0.19478607q-0.25402832 0.033798218 -0.3633728 0.22325897q-0.062469482 0.10826874 -0.049468994 0.24205017q0.018707275 0.15512848 0.14987183 0.30298615q0.057769775 0.08746338 0.43408203 0.46699524q0.54803467 0.550827 0.7427063 0.8074875q0.19464111 0.25666046 0.20501709 0.5512924q0.031707764 0.2889099 -0.1479187 0.60017395q-0.17181396 0.2977295 -0.50393677 0.46686554q-0.3321228 0.16912842 -0.75634766 0.1227417q-0.41070557 -0.03858185 -0.84375 -0.28851318q-0.69018555 -0.39832306 -0.90512085 -0.901207q-0.193573 -0.50860596 0.03970337 -1.1316681zm5.445801 4.5681076l0.30459595 -0.5277939q-0.7709656 0.3668747 -1.4882202 -0.047065735q-0.32479858 -0.1874466 -0.5386963 -0.47325897q-0.20037842 -0.2780075 -0.23416138 -0.5320358q-0.012481689 -0.259758 0.08959961 -0.5616684q0.060913086 -0.19935608 0.28741455 -0.59181976l1.2886047 -2.2329865l0.6089783 0.35146332l-1.1558533 2.0029144q-0.27334595 0.47366333 -0.32644653 0.6594925q-0.0864563 0.2748413 0.011383057 0.5117035q0.11135864 0.24467468 0.39556885 0.4086914q0.27062988 0.15620422 0.5787964 0.15364838q0.3294983 -0.008285522 0.55700684 -0.18367767q0.24884033 -0.1811142 0.5143738 -0.641243l1.1167908 -1.9352493l0.6089783 0.35146332l-2.0773926 3.5998306l-0.5413208 -0.31240845zm1.4852295 0.85717773l2.866211 -4.9666977l0.6089783 0.35146332l-2.8661804 4.96669l-0.6090088 -0.3514557zm3.1915283 1.1203003l-0.20983887 0.5824661q-0.2961731 -0.08072662 -0.49917603 -0.1978836q-0.33831787 -0.1952591 -0.4653015 -0.41286469q-0.11343384 -0.20980072 -0.10092163 -0.41905975q0.033843994 -0.21498108 0.35406494 -0.76984406l1.1948853 -2.0705872l-0.44659424 -0.2577362l0.27334595 -0.47366333l0.44659424 0.25774384l0.5076294 -0.87966156l0.81985474 -0.013938904l-0.71850586 1.2450562l0.6089783 0.35146332l-0.27334595 0.47366333l-0.6089783 -0.35146332l-1.2183228 2.1111832q-0.14837646 0.25713348 -0.16818237 0.3539505q0.0015563965 0.09109497 0.045806885 0.17074585q0.04421997 0.07965088 0.17956543 0.15775299q0.10824585 0.06248474 0.27844238 0.1426773zm0.65982056 -0.3227768l0.65011597 0.24891663q-0.14889526 0.38310242 -0.035980225 0.7188721q0.12069702 0.32224274 0.54022217 0.5643616q0.41952515 0.24211884 0.71624756 0.1968689q0.3045044 -0.058776855 0.43728638 -0.28884125q0.124938965 -0.21652985 0.011505127 -0.42633057q-0.07495117 -0.15148926 -0.4975586 -0.57580566q-0.5829468 -0.55290985 -0.7697754 -0.8230972q-0.18682861 -0.270195 -0.19720459 -0.5648346q-0.0025634766 -0.3081665 0.14581299 -0.56529236q0.14059448 -0.24359894 0.3659973 -0.38411713q0.23895264 -0.13270569 0.50650024 -0.1586914q0.19781494 -0.030166626 0.48043823 0.042755127q0.2904663 0.059379578 0.574646 0.2233963q0.41952515 0.24211884 0.67404175 0.5513611q0.25448608 0.30924988 0.27841187 0.6116867q0.031707764 0.28891754 -0.11721802 0.67201996l-0.64230347 -0.26245117q0.123413086 -0.30763245 0.019836426 -0.5658417q-0.09573364 -0.27173615 -0.4611206 -0.4826126q-0.41952515 -0.24211884 -0.68136597 -0.19478607q-0.25402832 0.033798218 -0.3633728 0.2232666q-0.062469482 0.10826111 -0.049468994 0.24204254q0.018707275 0.15512848 0.14987183 0.30298615q0.057769775 0.08746338 0.43408203 0.46699524q0.54803467 0.550827 0.7427063 0.8074875q0.19464111 0.25666046 0.20501709 0.5512924q0.031707764 0.2889099 -0.1479187 0.60017395q-0.17181396 0.2977295 -0.50393677 0.46686554q-0.3321228 0.16912842 -0.75634766 0.1227417q-0.41070557 -0.03858185 -0.84375 -0.28851318q-0.69018555 -0.39832306 -0.90512085 -0.901207q-0.193573 -0.50860596 0.03970337 -1.1316681zm5.6792603 4.702835l0.9812317 -4.2324677l0.62249756 0.35927582l-0.63430786 2.41214l-0.2286377 0.8963623q0.052581787 -0.05986023 0.61898804 -0.6349869l1.7867126 -1.7831497l0.6225281 0.3592682l-0.6614075 2.3965302l-0.22235107 0.79172516l0.6148071 -0.5652313l1.8117065 -1.7326508l0.59542847 0.3436432l-3.2006226 2.9515915l-0.63604736 -0.3670807l0.67337036 -2.4798126l0.21612549 -0.68709564l-2.3239746 2.3390198l-0.63604736 -0.3670807zm6.8007507 -1.7578278l0.40612793 -0.7037277l0.6089783 0.35146332l-0.40612793 0.7037201l-0.6089783 -0.3514557zm-2.460083 4.2629623l2.077423 -3.5998383l0.6089783 0.35146332l-2.0773926 3.5998383l-0.6090088 -0.35146332zm3.178009 1.1124878l-0.20983887 0.5824661q-0.2962036 -0.08072662 -0.49917603 -0.19787598q-0.33831787 -0.1952591 -0.4653015 -0.41286469q-0.113464355 -0.20980072 -0.10095215 -0.41905975q0.03387451 -0.21498871 0.35406494 -0.76984406l1.1949158 -2.0705872l-0.44659424 -0.2577362l0.27334595 -0.47366333l0.44656372 0.2577362l0.5076599 -0.87965393l0.8198242 -0.013938904l-0.71847534 1.2450562l0.6089783 0.35146332l-0.27334595 0.47366333l-0.6089783 -0.35146332l-1.2183228 2.1111832q-0.14840698 0.25712585 -0.16818237 0.3539505q0.0015563965 0.09109497 0.045776367 0.17074585q0.04425049 0.07965088 0.17956543 0.15775299q0.10827637 0.06248474 0.2784729 0.14266968zm0.286438 0.8869324l2.8661804 -4.96669l0.6089783 0.35146332l-1.0308838 1.7863846q0.7084961 -0.2586136 1.3580627 0.1162796q0.40600586 0.23430634 0.59646606 0.56072235q0.20401001 0.3342209 0.1618042 0.6887131q-0.020874023 0.3487625 -0.32543945 0.8765564l-1.3120422 2.2735825l-0.6089783 -0.3514557l1.3120422 -2.2735825q0.26553345 -0.46012878 0.17965698 -0.78028107q-0.06448364 -0.32587433 -0.4298706 -0.5367508q-0.2706604 -0.15620422 -0.6001587 -0.14792633q-0.3081665 0.0025558472 -0.55700684 0.18367767q-0.22750854 0.17539215 -0.477417 0.60845184l-1.1324158 1.9623184l-0.6089783 -0.35146332z" fill-rule="nonzero"></path><path fill="#000000" d="m282.80798 80.98477l2.8661804 -4.96669l0.64956665 0.37488556l-2.8661804 4.9666977l-0.64956665 -0.3748932zm1.816803 1.048523l2.8661804 -4.96669l2.2058716 1.2730713q0.66311646 0.38269806 0.92333984 0.71328735q0.27374268 0.3384018 0.28149414 0.7938843q0.007751465 0.45548248 -0.22653198 0.8614807q-0.30459595 0.5277939 -0.85375977 0.697937q-0.54919434 0.1701355 -1.321106 -0.14907074q0.18682861 0.270195 0.25186157 0.47009277q0.14154053 0.44248962 0.17218018 0.98335266l0.07159424 1.8453674l-0.8255005 -0.47642517l-0.056030273 -1.4034195q-0.026489258 -0.61061096 -0.08319092 -0.95001984q-0.048858643 -0.35294342 -0.1430664 -0.5335846q-0.09420776 -0.1806488 -0.21963501 -0.30715942q-0.09262085 -0.0895462 -0.34976196 -0.23794556l-0.757843 -0.4373703l-1.2730103 2.2059174l-0.66308594 -0.3827057zm2.2640991 -2.3916092l1.4074402 0.8122635q0.44659424 0.25774384 0.7583618 0.31140137q0.3117981 0.05366516 0.55075073 -0.07904053q0.25247192 -0.12490082 0.3930359 -0.36849213q0.20306396 -0.35186768 0.070892334 -0.7167969q-0.110809326 -0.37064362 -0.66567993 -0.69086456l-1.5698242 -0.9059906l-0.9449768 1.6375198zm7.182495 7.248169q-0.50234985 0.08894348 -0.8838806 0.031105042q-0.38156128 -0.05783844 -0.74694824 -0.2687149q-0.5819092 -0.33583832 -0.7427063 -0.80747986q-0.13943481 -0.47737122 0.11828613 -0.92396545q0.15618896 -0.27066803 0.3894348 -0.42471313q0.24673462 -0.14624023 0.50650024 -0.15869904q0.2810669 -0.018173218 0.5637207 0.054740906q0.20715332 0.04740143 0.5959778 0.21768188q0.7989807 0.3348236 1.2076111 0.40828705q0.08380127 -0.11399078 0.09942627 -0.14105988q0.21868896 -0.37892914 0.12866211 -0.62932587q-0.11291504 -0.33577728 -0.57302856 -0.60131836q-0.43307495 -0.24993134 -0.72195435 -0.21821594q-0.2889099 0.031707764 -0.6158447 0.3481598l-0.548584 -0.42485046q0.29986572 -0.3320694 0.6220703 -0.4527893q0.3300476 -0.13425446 0.75219727 -0.052993774q0.42996216 0.067733765 0.8900757 0.33328247q0.46011353 0.2655487 0.68182373 0.53783417q0.23526001 0.28009033 0.2690735 0.5341263q0.04159546 0.2405014 -0.04486084 0.5153351q-0.06665039 0.17802429 -0.30093384 0.5840149l-0.4685974 0.81199646q-0.4841919 0.8390579 -0.576355 1.0925522q-0.092163086 0.25349426 -0.1010437 0.5189743l-0.63604736 -0.3670807q0.014587402 -0.244133 0.1359253 -0.51688385zm0.72683716 -1.3845673q-0.40289307 -0.052108765 -1.1206665 -0.34008026q-0.41015625 -0.16455078 -0.6116028 -0.1906128q-0.18792725 -0.018241882 -0.347229 0.07022858q-0.15148926 0.07493591 -0.24517822 0.2373352q-0.14059448 0.24359894 -0.058380127 0.5075302q0.09573364 0.27174377 0.44760132 0.47480774q0.35186768 0.20306396 0.70843506 0.21040344q0.37789917 0.0016174316 0.6558838 -0.19875336q0.21188354 -0.14833069 0.446167 -0.5543213l0.12496948 -0.21653748zm0.5277405 2.7039566l2.0773926 -3.5998383l0.5413208 0.31240845l-0.29678345 0.51426697q0.7496338 -0.36116028 1.4939575 0.06840515q0.32476807 0.1874466 0.5251465 0.4654541q0.20037842 0.27799988 0.2263794 0.5455704q0.025970459 0.26756287 -0.06826782 0.5559387q-0.053131104 0.18582916 -0.30303955 0.61888885l-1.2729797 2.2059174l-0.6090088 -0.35146332l1.2651978 -2.1923828q0.21087646 -0.3653946 0.23120117 -0.5881882q0.041656494 -0.22851562 -0.08532715 -0.44612122q-0.10562134 -0.22333527 -0.34921265 -0.36392212q-0.37893677 -0.21868134 -0.81152344 -0.12556458q-0.42477417 0.079582214 -0.8230591 0.7697754l-1.1324158 1.9623184l-0.6089783 -0.35146332zm6.181183 3.5673294l0.26553345 -0.46012878q-0.6507263 0.34606934 -1.3138428 -0.036628723q-0.43304443 -0.24993134 -0.66567993 -0.6908722q-0.2112732 -0.4466629 -0.17218018 -0.98334503q0.060455322 -0.5424118 0.38067627 -1.0972748q0.30456543 -0.5277939 0.7304077 -0.8593216q0.4336548 -0.34506226 0.9182739 -0.37206268q0.50598145 -0.032722473 0.95254517 0.22501373q0.32479858 0.1874466 0.4824829 0.4768982q0.17901611 0.28372955 0.21646118 0.5939789l1.0308838 -1.7863846l0.6090088 0.35146332l-2.866211 4.96669l-0.5683594 -0.32802582zm-0.8829956 -2.9089737q-0.3982849 0.6901932 -0.3171692 1.20607q0.102508545 0.5101547 0.4949646 0.7366562q0.40597534 0.23430634 0.8640747 0.065711975q0.47161865 -0.16078186 0.8621216 -0.8374405q0.4217224 -0.7307968 0.33276367 -1.233139q-0.08114624 -0.5158844 -0.5006714 -0.7579956q-0.40597534 -0.23430634 -0.8718872 -0.05218506q-0.45806885 0.16859436 -0.8641968 0.8723221zm8.954651 5.240135l0.5615845 0.5586319q-0.6773071 0.67349243 -1.4685364 0.7941513q-0.76989746 0.1149292 -1.5412598 -0.3302536q-0.7984619 -0.4608078 -1.1252747 -1.0823975q-0.31329346 -0.61376953 -0.21115112 -1.384697q0.10211182 -0.7709198 0.50823975 -1.4746475q0.4451294 -0.7713928 1.065155 -1.1893082q0.6335449 -0.41010284 1.3466797 -0.3954239q0.72665405 0.022491455 1.3897705 0.4051895q0.74432373 0.42956543 1.0263672 1.0974731q0.29559326 0.6757202 0.08673096 1.4752579l-0.72195435 -0.21821594q0.13647461 -0.6428604 -0.061279297 -1.0817184q-0.1842041 -0.43104553 -0.6713867 -0.7122116q-0.5819397 -0.33583832 -1.1170349 -0.28385925q-0.53512573 0.051971436 -0.9630432 0.41838074q-0.4143982 0.37421417 -0.70336914 0.8749466q-0.35925293 0.6225281 -0.45666504 1.1977234q-0.08389282 0.5830078 0.15447998 1.0452881q0.25967407 0.45656586 0.7197876 0.72211456q0.5548706 0.32022095 1.1134033 0.22763824q0.56637573 -0.10610962 1.0687561 -0.6640625zm0.4642334 2.5951462l2.8661804 -4.96669l1.8675537 1.0778122q0.48718262 0.28116608 0.72662354 0.49150085q0.33413696 0.26501465 0.4761963 0.5815277q0.14208984 0.3165207 0.111328125 0.7136917q-0.022979736 0.3836441 -0.23382568 0.7490463q-0.36706543 0.636055 -1.0307617 0.8483505q-0.642395 0.20656586 -1.697937 -0.40263367l-1.2721252 -0.7341614l-1.1636353 2.016449l-0.64959717 -0.3748932zm2.1490784 -2.2234879l1.285614 0.7419739q0.63604736 0.3670807 1.02594 0.28540802q0.41125488 -0.087394714 0.66116333 -0.5204544q0.17962646 -0.31126404 0.1421814 -0.621521q-0.016113281 -0.31597137 -0.2341919 -0.5320358q-0.13894653 -0.13432312 -0.5855408 -0.39205933l-1.2720947 -0.7341614l-1.0230713 1.77285zm2.4724426 4.890686l2.8661804 -4.9666977l1.8675537 1.0778198q0.48718262 0.28116608 0.726593 0.49150085q0.33416748 0.26501465 0.4762268 0.5815277q0.14205933 0.31651306 0.11129761 0.7136917q-0.022949219 0.3836441 -0.23382568 0.7490387q-0.36706543 0.6360626 -1.0307617 0.8483505q-0.6423645 0.20656586 -1.697937 -0.40262604l-1.2720947 -0.734169l-1.1636658 2.0164566l-0.64956665 -0.3748932zm2.1490479 -2.2234879l1.2856445 0.7419739q0.63604736 0.3670807 1.02594 0.28540802q0.41122437 -0.087394714 0.6611328 -0.5204544q0.17962646 -0.31126404 0.1421814 -0.621521q-0.016082764 -0.315979 -0.23416138 -0.5320358q-0.13897705 -0.13432312 -0.5855713 -0.39205933l-1.2720947 -0.7341614l-1.0230713 1.77285zm2.4724426 4.890686l2.8661804 -4.9666977l2.2058716 1.2730713q0.66311646 0.3827057 0.92333984 0.71328735q0.2737732 0.3384018 0.28152466 0.7938843q0.007751465 0.45548248 -0.2265625 0.8614807q-0.30456543 0.5277939 -0.85375977 0.697937q-0.54919434 0.17014313 -1.321106 -0.14907074q0.18685913 0.270195 0.2518921 0.4701004q0.14151001 0.44248962 0.17218018 0.98334503l0.07159424 1.8453674l-0.825531 -0.47642517l-0.056030273 -1.4034195q-0.02645874 -0.61061096 -0.0831604 -0.95001984q-0.04888916 -0.3529358 -0.1430664 -0.5335846q-0.09420776 -0.18064117 -0.21963501 -0.30715942q-0.09265137 -0.0895462 -0.34976196 -0.23793793l-0.75787354 -0.43737793l-1.2729797 2.2059174l-0.66311646 -0.38269806zm2.2641296 -2.3916092l1.4074097 0.8122635q0.44659424 0.2577362 0.75839233 0.31140137q0.3117981 0.05365753 0.55075073 -0.07904816q0.25247192 -0.12489319 0.3930359 -0.36849213q0.20306396 -0.35186005 0.070892334 -0.71678925q-0.110839844 -0.37065125 -0.66567993 -0.6908722l-1.5698242 -0.905983l-0.9449768 1.6375198zm5.3562317 4.660759l0.65374756 0.30513763q-0.17807007 0.402359 -0.15625 0.7396774q0.029632568 0.3237915 0.28204346 0.6679077q0.2524109 0.34412384 0.67193604 0.5862427q0.37893677 0.21868896 0.72561646 0.27443695q0.35446167 0.04221344 0.5991211 -0.0691452q0.26602173 -0.11708832 0.3987732 -0.3471527q0.13278198 -0.23006439 0.098968506 -0.48410034q-0.03378296 -0.25403595 -0.28256226 -0.5419388q-0.15615845 -0.198349 -0.752594 -0.75907135q-0.5829468 -0.55290985 -0.7677002 -0.8579788q-0.2425232 -0.39253235 -0.26223755 -0.76473236q-0.011932373 -0.38572693 0.18331909 -0.72406006q0.21865845 -0.37892914 0.6226196 -0.57876587q0.40396118 -0.1998291 0.9036865 -0.12792206q0.5075073 0.058372498 1.0082092 0.34735107q0.5548706 0.32022095 0.87286377 0.7382736q0.31799316 0.41804504 0.34500122 0.9026871q0.034820557 0.47109985 -0.2093811 0.9255066l-0.65948486 -0.32647705q0.23275757 -0.4970932 0.06777954 -0.8989868q-0.15713501 -0.41542053 -0.7255249 -0.743454q-0.595459 -0.34365082 -0.99105835 -0.28331757q-0.39562988 0.060325623 -0.57525635 0.37158966q-0.15618896 0.2706604 -0.060424805 0.5424042q0.08792114 0.28527832 0.7770386 0.9355469q0.6968994 0.636734 0.9165344 0.94389343q0.31591797 0.45292664 0.33926392 0.88134q0.04473877 0.42269897 -0.1817627 0.81516266q-0.23428345 0.4059906 -0.6673889 0.6250839q-0.4253235 0.20555878 -0.9619751 0.16643524q-0.5288696 -0.05265045 -1.0701904 -0.3650589q-0.66311646 -0.3827057 -1.0138855 -0.83771515q-0.34298706 -0.46855164 -0.3736267 -1.009407q-0.030639648 -0.5408554 0.2447815 -1.0493927zm6.947571 4.3884735l0.5563965 0.41131592q-0.4539795 0.56785583 -1.0630188 0.6854172q-0.6090393 0.11755371 -1.1909485 -0.2182846q-0.74432373 -0.42956543 -0.917572 -1.160965q-0.16543579 -0.7449341 0.3578186 -1.6516571q0.33581543 -0.58193207 0.7752075 -0.9056473q0.45288086 -0.31591034 0.9703064 -0.30594635q0.5252075 -0.0035705566 0.98535156 0.26197815q0.5819092 0.33583832 0.7754822 0.8444519q0.20709229 0.51641846 0.0029907227 1.120224l-0.65011597 -0.24891663q0.12963867 -0.41226196 0.0146484375 -0.71315765q-0.107177734 -0.3144226 -0.40490723 -0.48625183q-0.46011353 -0.2655487 -0.9530945 -0.0990448q-0.47161865 0.16078186 -0.8855591 0.8780441q-0.4139099 0.71726227 -0.33850098 1.2117996q0.09677124 0.48880768 0.5433655 0.7465515q0.36538696 0.21087646 0.72039795 0.12711334q0.3763733 -0.08947754 0.7017517 -0.49702454zm1.1743164 0.028282166q0.5779419 -1.0014572 1.4061279 -1.1548996q0.694397 -0.14044952 1.3710632 0.25006104q0.7307739 0.42175293 0.9232788 1.1823044q0.19250488 0.7605591 -0.29953003 1.6131516q-0.4060974 0.7037277 -0.8491211 0.97122955q-0.42947388 0.2753067 -0.9682312 0.27106476q-0.517395 -0.009963989 -0.97750854 -0.2755127q-0.75787354 -0.43737793 -0.9503479 -1.1979294q-0.1789856 -0.7527466 0.3442688 -1.6594696zm0.6225281 0.3592682q-0.39831543 0.6901932 -0.30361938 1.2138824q0.115997314 0.5179672 0.57611084 0.78351593q0.44659424 0.2577362 0.9395752 0.0912323q0.51431274 -0.17222595 0.92041016 -0.8759537q0.39050293 -0.67665863 0.2744751 -1.1946259q-0.10247803 -0.5101547 -0.54907227 -0.76789856q-0.46011353 -0.26554108 -0.96661377 -0.10684967q-0.49298096 0.1665039 -0.89126587 0.8566971zm2.4088135 3.7895813l2.0773926 -3.5998383l0.5548706 0.32022095l-0.32022095 0.554863q0.42947388 -0.27531433 0.6756897 -0.295578q0.25976562 -0.012458801 0.46276855 0.10469818q0.31124878 0.1796341 0.5188904 0.570076l-0.54452515 0.44343567q-0.13845825 -0.26029968 -0.36849976 -0.39307404q-0.20300293 -0.11714935 -0.43566895 -0.08907318q-0.21917725 0.035888672 -0.40396118 0.1998291q-0.29571533 0.26232147 -0.5221863 0.65478516l-1.0855713 1.8811111l-0.6089783 -0.3514557zm5.455536 1.5970612l0.5756531 0.44046783q-0.46905518 0.46894836 -1.054657 0.54590607q-0.56427 0.07123566 -1.2003174 -0.29584503q-0.7849121 -0.4529953 -0.9638977 -1.2057343q-0.17895508 -0.7527466 0.32867432 -1.6324081q0.5232544 -0.906723 1.2723389 -1.1419067q0.76260376 -0.22737122 1.5069275 0.20219421q0.7172241 0.41394043 0.8883972 1.1802216q0.17895508 0.75273895 -0.33648682 1.645935q-0.031219482 0.054130554 -0.10723877 0.15458679l-2.679535 -1.5464249q-0.29519653 0.6053543 -0.184906 1.1019821q0.11807251 0.48308563 0.57821655 0.74863434q0.32476807 0.1874466 0.6563721 0.14428711q0.3451233 -0.035346985 0.720459 -0.34189606zm-1.4405823 -2.13031l2.0028992 1.1559219q0.22491455 -0.48356628 0.16821289 -0.82297516q-0.08111572 -0.51587677 -0.55477905 -0.78923035q-0.41952515 -0.24211884 -0.8677063 -0.12194061q-0.44821167 0.12018585 -0.7486267 0.5782242zm2.532837 2.886963l0.65011597 0.24891663q-0.14892578 0.38310242 -0.036010742 0.7188797q0.12072754 0.3222351 0.5402527 0.56435394q0.41952515 0.24211884 0.71621704 0.1968689q0.3045349 -0.058776855 0.43728638 -0.28884125q0.12496948 -0.21652985 0.011505127 -0.42633057q-0.074920654 -0.15148926 -0.4975586 -0.57579803q-0.58291626 -0.5529175 -0.7697449 -0.82310486q-0.18685913 -0.270195 -0.1972351 -0.56482697q-0.0025634766 -0.30817413 0.1458435 -0.5653q0.14056396 -0.24359894 0.3659668 -0.38411713q0.23895264 -0.13270569 0.50650024 -0.1586914q0.19781494 -0.030166626 0.48046875 0.042755127q0.2904358 0.059379578 0.574646 0.2233963q0.41952515 0.24211884 0.67401123 0.5513611q0.2545166 0.30924988 0.27841187 0.61169434q0.031707764 0.2889099 -0.11721802 0.6720123l-0.64230347 -0.26245117q0.123413086 -0.30762482 0.019866943 -0.56583405q-0.09576416 -0.27174377 -0.46115112 -0.48262024q-0.41952515 -0.24211884 -0.68133545 -0.19478607q-0.25402832 0.033798218 -0.3633728 0.2232666q-0.062469482 0.10826111 -0.04949951 0.24205017q0.018737793 0.15512085 0.14990234 0.30297852q0.057769775 0.08746338 0.4340515 0.46699524q0.5480652 0.550827 0.7427063 0.8074875q0.19464111 0.25666046 0.20501709 0.5512924q0.031707764 0.2889099 -0.1479187 0.60017395q-0.17181396 0.29773712 -0.50393677 0.46686554q-0.3321228 0.16912842 -0.75634766 0.1227417q-0.41070557 -0.03858185 -0.84375 -0.28851318q-0.69018555 -0.39831543 -0.90509033 -0.90119934q-0.193573 -0.5086136 0.03970337 -1.1316757z" fill-rule="nonzero"></path><path fill="#000000" fill-opacity="0.0" d="m91.874016 5.9658794l20.913383 0l0 23.401575l-20.913383 0z" fill-rule="nonzero"></path><path fill="#000000" d="m107.95214 32.885876l-1.671875 0l0 -10.640623q-0.59375 0.578125 -1.578125 1.15625q-0.984375 0.5625 -1.765625 0.859375l0 -1.625q1.40625 -0.65625 2.453125 -1.59375q1.046875 -0.9375 1.484375 -1.8125l1.078125 0l0 13.656248z" fill-rule="nonzero"></path><path fill="#000000" fill-opacity="0.0" d="m190.55118 132.65617l14.645676 0l0 31.307083l-14.645676 0z" fill-rule="nonzero"></path><path fill="#000000" d="m205.75935 157.9668l0 1.609375l-8.984375 0q-0.015625 -0.609375 0.1875 -1.15625q0.34375 -0.921875 1.09375 -1.8125q0.765625 -0.890625 2.1875 -2.0625q2.21875 -1.8125 3.0 -2.875q0.78125 -1.0625 0.78125 -2.015625q0 -0.984375 -0.71875 -1.671875q-0.703125 -0.6875 -1.84375 -0.6875q-1.203125 0 -1.9375 0.734375q-0.71875 0.71875 -0.71875 2.0l-1.71875 -0.171875q0.171875 -1.921875 1.328125 -2.921875q1.15625 -1.015625 3.09375 -1.015625q1.953125 0 3.09375 1.09375q1.140625 1.078125 1.140625 2.6875q0 0.8125 -0.34375 1.609375q-0.328125 0.78125 -1.109375 1.65625q-0.765625 0.859375 -2.5625 2.390625q-1.5 1.265625 -1.9375 1.71875q-0.421875 0.4375 -0.703125 0.890625l6.671875 0z" fill-rule="nonzero"></path><path fill="#000000" fill-opacity="0.0" d="m338.98163 2.2020998l26.330719 0l0 26.330708l-26.330719 0z" fill-rule="nonzero"></path><path fill="#000000" d="m348.7785 25.528347l1.671875 -0.21875q0.28125 1.421875 0.96875 2.046875q0.703125 0.625 1.6875 0.625q1.1875 0 2.0 -0.8125q0.8125 -0.828125 0.8125 -2.03125q0 -1.140625 -0.765625 -1.890625q-0.75 -0.75 -1.90625 -0.75q-0.46875 0 -1.171875 0.1875l0.1875 -1.46875q0.15625 0.015625 0.265625 0.015625q1.0625 0 1.90625 -0.546875q0.859375 -0.5625 0.859375 -1.71875q0 -0.921875 -0.625 -1.515625q-0.609375 -0.609375 -1.59375 -0.609375q-0.96875 0 -1.625 0.609375q-0.640625 0.609375 -0.828125 1.84375l-1.671875 -0.296875q0.296875 -1.6875 1.375 -2.609375q1.09375 -0.92187405 2.71875 -0.92187405q1.109375 0 2.046875 0.484375q0.9375 0.46874905 1.421875 1.296874q0.5 0.828125 0.5 1.75q0 0.890625 -0.46875 1.609375q-0.46875 0.71875 -1.40625 1.15625q1.21875 0.265625 1.875 1.15625q0.671875 0.875 0.671875 2.1875q0 1.78125 -1.296875 3.015625q-1.296875 1.234375 -3.28125 1.234375q-1.796875 0 -2.984375 -1.0625q-1.171875 -1.0625 -1.34375 -2.765625z" fill-rule="nonzero"></path><path fill="#000000" fill-opacity="0.0" d="m297.1706 105.06036l32.629944 0l0 43.496063l-32.629944 0z" fill-rule="nonzero"></path><path fill="#000000" d="m312.31122 131.98036l0 -3.25l-5.90625 0l0 -1.53125l6.21875 -8.8125l1.359375 0l0 8.8125l1.84375 0l0 1.53125l-1.84375 0l0 3.25l-1.671875 0zm0 -4.78125l0 -6.140625l-4.25 6.140625l4.25 0z" fill-rule="nonzero"></path></g></svg>

